<svg width="80" height="81" viewBox="0 0 80 81" fill="none" xmlns="http://www.w3.org/2000/svg">
<g id="bonus 1" clip-path="url(#clip0_9_1290)">
<path id="Vector" d="M40 80.5233C29.3339 80.5233 19.3064 76.3625 11.7642 68.8076C4.22204 61.2523 0.0686035 51.2078 0.0686035 40.5233C0.0686035 29.8387 4.22204 19.7942 11.7642 12.2389C19.3064 4.68404 29.3339 0.523254 40 0.523254C50.6661 0.523254 60.6936 4.68404 68.2358 12.2389C75.7778 19.7942 79.9314 29.8387 79.9314 40.5233C79.9314 51.2078 75.7778 61.2523 68.2358 68.8076C60.6936 76.3625 50.6661 80.5233 40 80.5233Z" fill="#FECF05"/>
<path id="Vector_2" d="M39.9999 73.8983C58.4013 73.8983 73.3186 58.9558 73.3186 40.5233C73.3186 22.0908 58.4013 7.14825 39.9999 7.14825C21.5985 7.14825 6.68115 22.0908 6.68115 40.5233C6.68115 58.9558 21.5985 73.8983 39.9999 73.8983Z" fill="#EE3835"/>
<g id="Group">
<path id="Vector_3" d="M72.7767 46.5434C73.132 44.5906 73.3185 42.5789 73.3185 40.5232C73.3185 38.4678 73.132 36.4559 72.7768 34.5031L40.5085 40.5232L72.7767 46.5434Z" fill="#C0272D"/>
<path id="Vector_4" d="M58.9249 13.0533L40.3596 40.1629L67.4231 21.5659C65.1274 18.2403 62.2449 15.3526 58.9249 13.0533Z" fill="#C0272D"/>
<path id="Vector_5" d="M39.9999 40.0136L46.0101 7.69027C44.0604 7.33465 42.052 7.14746 39.9999 7.14746C37.948 7.14746 35.9398 7.33434 33.9902 7.69012L39.9999 40.0136Z" fill="#C0272D"/>
<path id="Vector_6" d="M12.5771 21.5657L39.6403 40.1629L21.0753 13.0529C17.7551 15.3524 14.8728 18.2399 12.5771 21.5657Z" fill="#C0272D"/>
<path id="Vector_7" d="M7.22327 34.5028C6.86812 36.4557 6.6814 38.4676 6.6814 40.5232C6.6814 42.5787 6.86812 44.5906 7.22312 46.5432L39.4914 40.5232L7.22327 34.5028Z" fill="#C0272D"/>
<path id="Vector_8" d="M21.0752 67.9934L39.6403 40.8835L12.5769 59.4804C14.8725 62.8062 17.755 65.6939 21.0752 67.9934Z" fill="#C0272D"/>
<path id="Vector_9" d="M40.0001 73.8989C42.0521 73.8989 44.0604 73.712 46.0099 73.3562L40.0001 41.0329L33.9902 73.3564C35.9398 73.712 37.948 73.8989 40.0001 73.8989Z" fill="#C0272D"/>
<path id="Vector_10" d="M67.4231 59.4806L40.3596 40.8835L58.9248 67.9934C62.2448 65.6939 65.1273 62.8062 67.4231 59.4806Z" fill="#C0272D"/>
</g>
<g id="Group_2">
<path id="Vector_11" d="M40.2543 77.3537C40.2285 76.6875 40.7468 76.1257 41.4132 76.1C42.0796 76.0742 42.6397 76.5925 42.6671 77.2589C42.6929 77.9253 42.1729 78.487 41.5082 78.5128C41.4921 78.5128 41.476 78.5128 41.4599 78.5128C40.8146 78.5128 40.2802 78.004 40.2543 77.3537ZM35.7022 78.3001C35.039 78.2261 34.5625 77.6289 34.6383 76.9658C34.7124 76.3026 35.3111 75.8261 35.9727 75.9018C36.6358 75.9759 37.1124 76.5747 37.0368 77.2362C36.9675 77.8526 36.4444 78.3083 35.8391 78.3083C35.7939 78.3084 35.7472 78.3068 35.7022 78.3001ZM45.8639 76.8886C45.7368 76.2334 46.1635 75.6009 46.8185 75.4737V75.472C47.4736 75.3448 48.1063 75.7731 48.2349 76.4281C48.3621 77.0817 47.9339 77.7157 47.2805 77.8431C47.2016 77.8575 47.1244 77.8658 47.0471 77.8658C46.4821 77.8658 45.9766 77.465 45.8639 76.8886ZM29.9944 77.2057C29.3505 77.0303 28.9707 76.3672 29.1477 75.7233C29.3232 75.0811 29.9865 74.7012 30.6302 74.8783C31.2724 75.0537 31.6522 75.7168 31.4769 76.3607C31.3304 76.8968 30.8443 77.2495 30.3132 77.2495C30.2068 77.2493 30.1007 77.2347 29.9944 77.2057ZM51.3368 75.5703C51.1115 74.9425 51.435 74.252 52.0627 74.025C52.6888 73.7981 53.381 74.1233 53.608 74.7493C53.8349 75.3772 53.5097 76.0693 52.8836 76.2962C52.8836 76.2962 52.8836 76.2962 52.8821 76.2945C52.7469 76.3445 52.6083 76.367 52.4732 76.367C51.9791 76.367 51.5155 76.0611 51.3368 75.5703ZM24.5183 75.2453C23.9099 74.9731 23.6379 74.2586 23.9099 73.65C24.1819 73.0415 24.8966 72.7695 25.505 73.0415C26.1136 73.3136 26.3855 74.0281 26.1136 74.6367C25.9124 75.0857 25.4713 75.3514 25.011 75.3514C24.845 75.3514 24.6777 75.3176 24.5183 75.2453ZM56.5393 73.4264C56.219 72.8418 56.433 72.1078 57.0172 71.7876C57.6032 71.4673 58.3372 71.6831 58.6558 72.2673C58.9761 72.8531 58.7621 73.5854 58.1777 73.9058C57.9925 74.0073 57.7946 74.0539 57.5983 74.0539C57.1718 74.054 56.7582 73.827 56.5393 73.4264ZM19.4108 72.467C18.8507 72.105 18.6913 71.3564 19.0535 70.7978C19.4157 70.2375 20.1641 70.0781 20.7227 70.4403C21.2829 70.8025 21.4422 71.5509 21.08 72.1112C20.8483 72.4668 20.4619 72.6615 20.0658 72.6615C19.8407 72.6615 19.6136 72.5987 19.4108 72.467ZM61.3521 70.5112C60.9465 69.9815 61.0463 69.2236 61.5758 68.8176C62.1054 68.4122 62.8636 68.5136 63.2691 69.0417C63.6747 69.5712 63.5733 70.3293 63.0454 70.735C62.8247 70.9023 62.5672 70.9845 62.3113 70.9845C61.9477 70.9843 61.5904 70.8217 61.3521 70.5112ZM14.788 68.9434C14.2907 68.499 14.2455 67.7376 14.6899 67.2387C15.1325 66.7414 15.8971 66.6962 16.3944 67.1404C16.8919 67.585 16.9369 68.3462 16.4927 68.8453C16.2546 69.1123 15.9229 69.2492 15.5913 69.2492C15.3046 69.2492 15.0182 69.1478 14.788 68.9434ZM65.6675 66.8942C65.1863 66.4339 65.17 65.6692 65.6321 65.1879C66.0924 64.7067 66.8569 64.6904 67.3383 65.1525C67.8196 65.6143 67.8357 66.3775 67.3738 66.8586C67.1371 67.1065 66.82 67.2306 66.5029 67.2306C66.2021 67.2308 65.901 67.1197 65.6675 66.8942ZM10.7557 64.7597C10.3307 64.2464 10.4032 63.485 10.9166 63.06C11.43 62.635 12.1915 62.7073 12.6165 63.2209C13.0415 63.7345 12.969 64.4958 12.4555 64.9206C12.2302 65.1073 11.9582 65.1975 11.6861 65.1975C11.34 65.1976 10.994 65.0479 10.7557 64.7597ZM69.3844 62.6656C68.8386 62.2826 68.7068 61.5293 69.0897 60.9834C69.4729 60.4378 70.2261 60.3057 70.7719 60.6889C71.3177 61.0722 71.4496 61.8254 71.0666 62.3711C70.8316 62.7059 70.4565 62.8847 70.0766 62.8847C69.8366 62.8847 69.5952 62.8137 69.3844 62.6656ZM7.40598 60.0145C7.06317 59.4414 7.24989 58.7011 7.82286 58.3581C8.39426 58.0168 9.13629 58.2037 9.47754 58.7767C9.82036 59.3482 9.63364 60.0901 9.06067 60.4314C8.86754 60.5473 8.65348 60.6022 8.44254 60.6022C8.03223 60.6022 7.63129 60.3928 7.40598 60.0145ZM72.4169 57.9204C71.8197 57.6243 71.5735 56.9 71.8696 56.3028C72.1641 55.704 72.8885 55.4593 73.4872 55.7556C74.0844 56.0501 74.3291 56.7745 74.0329 57.3732C73.8236 57.7982 73.3954 58.0445 72.9511 58.0445C72.771 58.0443 72.5891 58.004 72.4169 57.9204ZM4.8177 54.8137C4.56661 54.1956 4.86614 53.4922 5.48254 53.2426C6.10067 52.9917 6.80411 53.2893 7.05504 53.9075C7.30614 54.5256 7.00848 55.229 6.39036 55.4801C6.24067 55.5397 6.0877 55.5686 5.93645 55.5686C5.46004 55.5687 5.0077 55.2839 4.8177 54.8137ZM74.6882 52.7647C74.0524 52.5651 73.6999 51.8875 73.8994 51.2515C74.1007 50.6159 74.7783 50.2617 75.4141 50.4628C76.0499 50.6625 76.4025 51.3401 76.2029 51.9759C76.0402 52.4926 75.5654 52.8209 75.0519 52.8209C74.9313 52.8209 74.809 52.8034 74.6882 52.7647ZM3.0552 49.2767C2.90223 48.6264 3.30473 47.9775 3.95348 47.8247C4.60379 47.6718 5.25239 48.0743 5.40536 48.7228C5.55817 49.3715 5.15583 50.0218 4.50723 50.1748C4.41379 50.1957 4.32051 50.207 4.23036 50.207C3.68129 50.207 3.18551 49.8318 3.0552 49.2767ZM76.1416 47.3272C75.4833 47.2259 75.031 46.6109 75.1308 45.9509C75.2322 45.2926 75.8471 44.8387 76.5071 44.94C77.1654 45.0398 77.6194 45.6562 77.5179 46.3147C77.4261 46.9118 76.9127 47.3401 76.3252 47.3401C76.2657 47.3401 76.2044 47.3368 76.1416 47.3272ZM2.16176 43.5334C2.10864 42.8701 2.60614 42.289 3.27083 42.2359C3.93551 42.1843 4.51676 42.6818 4.56817 43.345C4.62129 44.01 4.12395 44.5909 3.45911 44.644C3.42692 44.6457 3.39629 44.6473 3.36426 44.6473C2.73973 44.6473 2.21161 44.1659 2.16176 43.5334ZM75.5413 40.5233C75.5413 40.4893 75.543 40.4572 75.5446 40.425C75.543 40.3928 75.5413 40.3608 75.5413 40.3267C75.5364 39.6603 76.0757 39.1164 76.7421 39.1131C77.4085 39.1098 77.951 39.6475 77.9558 40.314C77.9558 40.3495 77.9543 40.3847 77.951 40.4201C77.9543 40.454 77.9558 40.4878 77.9558 40.5233C77.9558 41.1897 77.415 41.7306 76.7485 41.7306C76.0821 41.7306 75.5413 41.1897 75.5413 40.5233ZM3.26286 39.0181C2.59645 38.9698 2.09739 38.3903 2.14583 37.7257C2.19411 37.0609 2.77192 36.5603 3.43676 36.6101C4.10161 36.6584 4.60208 37.2364 4.55395 37.9012C4.50723 38.537 3.9777 39.0215 3.35145 39.0215C3.32067 39.0215 3.29176 39.0198 3.26286 39.0181ZM75.1004 34.9007C74.9972 34.2423 75.4463 33.6242 76.1047 33.5197C76.763 33.4167 77.3811 33.8657 77.4858 34.524C77.5905 35.1825 77.1413 35.8006 76.4814 35.9051C76.4188 35.915 76.3543 35.9197 76.2916 35.9197C75.7086 35.9195 75.1952 35.4962 75.1004 34.9007ZM3.91317 33.4264C3.26442 33.2765 2.85723 32.6295 3.00692 31.9792C3.15504 31.3289 3.80379 30.9231 4.45395 31.0728C5.10254 31.2209 5.50989 31.8697 5.3602 32.5182C5.23145 33.0786 4.73411 33.4567 4.1852 33.4567C4.09504 33.4567 4.00489 33.4472 3.91317 33.4264ZM73.8399 29.6081C73.6354 28.9739 73.9863 28.2931 74.6205 28.0903C75.2563 27.8859 75.9357 28.2353 76.1402 28.8709C76.343 29.5053 75.9936 30.1843 75.3594 30.3889C75.2354 30.4275 75.1116 30.4467 74.9891 30.4467C74.479 30.4467 74.0041 30.1201 73.8399 29.6081ZM5.41333 27.9953C4.79364 27.7489 4.49254 27.0454 4.73895 26.4275C4.98676 25.8078 5.68864 25.5053 6.30833 25.7531C6.92645 25.9993 7.22911 26.7028 6.98114 27.3207C6.7927 27.794 6.33895 28.0822 5.86083 28.0822C5.71114 28.0822 5.55989 28.0548 5.41333 27.9953ZM71.7827 24.5714C71.4849 23.9742 71.7247 23.25 72.3219 22.9506C72.9175 22.6512 73.6435 22.8926 73.9411 23.4898C74.2405 24.0854 73.9991 24.8097 73.4036 25.109C73.2297 25.1959 73.0447 25.2378 72.8644 25.2378C72.4218 25.2379 71.9952 24.9931 71.7827 24.5714ZM7.72801 22.8604C7.15333 22.5225 6.96176 21.782 7.30145 21.2073C7.63958 20.6326 8.37989 20.4426 8.95458 20.7809C9.52911 21.1206 9.71911 21.8609 9.38098 22.434C9.15567 22.8154 8.75317 23.0279 8.33958 23.0279C8.13208 23.0278 7.91958 22.9747 7.72801 22.8604ZM68.9804 19.9082C68.5957 19.3642 68.7229 18.6109 69.2669 18.2247C69.811 17.8382 70.5643 17.9672 70.9505 18.5097C70.9505 18.5097 70.9505 18.5097 70.949 18.5097C71.3354 19.0536 71.2082 19.807 70.6641 20.1932C70.4516 20.3445 70.2086 20.4153 69.9655 20.4153C69.5888 20.4154 69.2169 20.2401 68.9804 19.9082ZM10.7975 18.1392C10.2825 17.7175 10.2052 16.9578 10.6285 16.4411C11.0502 15.9259 11.81 15.8489 12.3266 16.2722C12.8435 16.6939 12.9191 17.4537 12.4972 17.9703C12.2574 18.2617 11.9115 18.4129 11.5621 18.4129C11.2933 18.4129 11.023 18.3245 10.7975 18.1392ZM65.5018 15.7231C65.0366 15.2436 65.0494 14.4806 65.5275 14.0153C66.0072 13.5517 66.7702 13.5629 67.2354 14.0428C67.699 14.5207 67.6877 15.2853 67.208 15.7506C66.9746 15.9775 66.6704 16.0903 66.3679 16.0903C66.054 16.0903 65.7385 15.9679 65.5018 15.7231ZM14.5497 13.9412C14.1038 13.4454 14.1441 12.6826 14.6383 12.2367C15.1341 11.7909 15.8986 11.8311 16.3446 12.3268C16.7905 12.8209 16.7502 13.5856 16.2544 14.0315C16.0227 14.239 15.7344 14.3406 15.4463 14.3406C15.1163 14.3406 14.788 14.2068 14.5497 13.9412ZM61.4261 12.1145C60.895 11.7104 60.7902 10.9539 61.1944 10.4228C61.5968 9.89169 62.3533 9.787 62.8846 10.1893C63.4157 10.5917 63.5204 11.35 63.1179 11.8811C62.8797 12.195 62.5191 12.359 62.1538 12.359C61.9011 12.3589 61.645 12.2784 61.4261 12.1145ZM18.8925 10.3615C18.5271 9.80465 18.6833 9.0545 19.2402 8.68903C19.7988 8.32372 20.5472 8.47981 20.9127 9.03684C21.2782 9.59528 21.1219 10.3439 20.565 10.7092C20.3605 10.8426 20.1305 10.9073 19.9035 10.9073C19.5107 10.9072 19.1244 10.714 18.8925 10.3615ZM56.8499 9.16544V9.16731C56.2639 8.85012 56.045 8.11762 56.3622 7.52997C56.6777 6.94419 57.4118 6.72528 57.9977 7.04247C58.5835 7.3595 58.8025 8.09184 58.4854 8.67794C58.2664 9.08184 57.8511 9.31215 57.423 9.31215C57.2282 9.312 57.0318 9.26528 56.8499 9.16544ZM23.7296 7.48512C23.4527 6.87809 23.7215 6.16169 24.3283 5.88669C24.9352 5.61137 25.6514 5.87856 25.9268 6.48559C26.2036 7.09231 25.9347 7.80872 25.3279 8.08387V8.08544C25.1654 8.15794 24.9963 8.19325 24.8289 8.19325C24.3702 8.19325 23.9308 7.93075 23.7296 7.48512ZM51.876 6.95544V6.95387C51.2466 6.73153 50.9183 6.04106 51.1419 5.41341C51.3658 4.78559 52.0563 4.45715 52.6841 4.67934C53.3119 4.90325 53.6402 5.59215 53.4182 6.22137C53.241 6.71559 52.7758 7.02466 52.2802 7.02466C52.1449 7.0245 52.0097 7.00215 51.876 6.95544ZM28.9513 5.38278C28.7727 4.74075 29.1477 4.07575 29.7899 3.89544C30.4322 3.71669 31.0986 4.09184 31.2774 4.73403C31.4575 5.37622 31.0825 6.04278 30.4404 6.22137C30.3308 6.252 30.2215 6.26653 30.1136 6.26653C29.5855 6.26653 29.1011 5.91716 28.9513 5.38278ZM46.6238 5.53575C45.9686 5.41184 45.5389 4.78075 45.6613 4.12575C45.7852 3.47059 46.4163 3.03919 47.073 3.16309C47.7282 3.28715 48.1579 3.91809 48.034 4.57325C47.9246 5.15262 47.4191 5.55653 46.8493 5.55653C46.775 5.55653 46.6994 5.55012 46.6238 5.53575ZM34.4354 4.11122C34.3566 3.44965 34.8297 2.84747 35.493 2.77028C36.1546 2.69137 36.755 3.16465 36.8338 3.82622C36.9111 4.48778 36.4379 5.08809 35.7763 5.16716C35.728 5.17356 35.6797 5.177 35.633 5.177C35.0294 5.17684 34.5079 4.7245 34.4354 4.11122ZM41.2154 4.94012C40.549 4.91762 40.0274 4.35903 40.05 3.69262C40.071 3.02637 40.6294 2.50325 41.296 2.52559C41.296 2.52559 41.296 2.52559 41.296 2.52747C41.9624 2.5484 42.4855 3.10684 42.463 3.77325C42.4404 4.42528 41.9044 4.94028 41.2557 4.94028C41.2427 4.94012 41.2282 4.94012 41.2154 4.94012Z" fill="white"/>
<path id="Vector_12" d="M68.9949 40.5232C68.9949 45.7762 64.7438 50.0348 59.4994 50.0348H20.5007C15.2565 50.0348 11.0054 45.7762 11.0054 40.5232C11.0054 35.2703 15.2565 31.0117 20.5007 31.0117H59.4996C64.7437 31.0117 68.9949 35.2703 68.9949 40.5232Z" fill="white"/>
</g>
<path id="Vector_13" opacity="0.1" d="M14.2035 40.5232C14.2035 35.2703 18.4547 31.0117 23.699 31.0117H20.5007C15.2565 31.0117 11.0054 35.2703 11.0054 40.5232C11.0054 45.7762 15.2565 50.0348 20.5007 50.0348H23.699C18.4547 50.0348 14.2035 45.7762 14.2035 40.5232Z" fill="black"/>
<path id="Vector_14" d="M59.4994 51.2067H20.5007C14.6188 51.2067 9.8335 46.414 9.8335 40.5232C9.8335 34.6325 14.6188 29.8398 20.5007 29.8398H59.4996C65.3816 29.8398 70.1669 34.6325 70.1669 40.5232C70.1669 46.414 65.3815 51.2067 59.4994 51.2067ZM20.5007 32.1836C15.9112 32.1836 12.1772 35.9247 12.1772 40.5232C12.1772 45.1218 15.9112 48.8629 20.5007 48.8629H59.4996C64.0893 48.8629 67.8232 45.1218 67.8232 40.5232C67.8232 35.9247 64.0893 32.1836 59.4996 32.1836H20.5007Z" fill="#FECF05"/>
<g id="Group_3">
<path id="Vector_15" d="M22.1322 34.5625H18.4587C17.8116 34.5625 17.2869 35.087 17.2869 35.7343C17.2869 35.7634 17.2869 45.3123 17.2869 45.3123C17.2869 45.9597 17.8116 46.4842 18.4587 46.4842H22.1322C24.0911 46.4842 25.6847 44.8798 25.6847 42.9078C25.6847 41.9914 25.3398 41.1548 24.7748 40.5214C25.3389 39.8881 25.6847 39.0542 25.6847 38.1387C25.6847 36.1667 24.0911 34.5625 22.1322 34.5625ZM22.1322 44.1403H19.6306V41.6748H22.1322C22.7987 41.6748 23.3409 42.2279 23.3409 42.9078C23.3409 43.5873 22.7987 44.1403 22.1322 44.1403ZM22.1322 39.3714H19.6306V36.9062H22.1322C22.7987 36.9062 23.3409 37.459 23.3409 38.1387C23.3409 38.8184 22.7987 39.3714 22.1322 39.3714Z" fill="#EE3835"/>
<path id="Vector_16" d="M30.6479 34.562C28.3677 34.562 26.5127 36.4247 26.5127 38.7142V42.3326C26.5127 44.6219 28.3677 46.4842 30.6479 46.4842C32.9283 46.4842 34.7836 44.6219 34.7836 42.3326V38.7142C34.7836 36.4247 32.9283 34.562 30.6479 34.562ZM32.4399 42.3326C32.4399 43.3295 31.636 44.1404 30.6479 44.1404C29.66 44.1404 28.8564 43.3295 28.8564 42.3326V38.7142C28.8564 37.717 29.66 36.9058 30.6479 36.9058C31.636 36.9058 32.4399 37.717 32.4399 38.7142V42.3326Z" fill="#EE3835"/>
<path id="Vector_17" d="M59.5894 39.3514H57.7377C57.3147 39.3514 56.9575 38.8959 56.9575 38.3569V37.9006C56.9575 37.3614 57.3147 36.9058 57.7377 36.9058H60.5486C61.1958 36.9058 61.7205 36.3812 61.7205 35.7339C61.7205 35.0865 61.1958 34.562 60.5486 34.562H57.7377C56.0152 34.562 54.6138 36.0597 54.6138 37.9006V38.3569C54.6138 40.1976 56.0152 41.6951 57.7377 41.6951H59.5894C60.0122 41.6951 60.3694 42.1506 60.3694 42.6897V43.1459C60.3694 43.685 60.0122 44.1404 59.5894 44.1404H56.3814C55.7342 44.1404 55.2095 44.665 55.2095 45.3123C55.2095 45.9597 55.7342 46.4842 56.3814 46.4842H59.5894C61.3119 46.4842 62.7131 44.9867 62.7131 43.1459V42.6897C62.7131 40.8489 61.3119 39.3514 59.5894 39.3514Z" fill="#EE3835"/>
<path id="Vector_18" d="M39.941 34.562C37.6608 34.562 35.8057 36.4247 35.8057 38.7142V45.3123C35.8057 45.9597 36.3304 46.4842 36.9775 46.4842C37.6247 46.4842 38.1494 45.9597 38.1494 45.3123V38.7142C38.1494 37.717 38.9532 36.9058 39.941 36.9058C40.9293 36.9058 41.7332 37.717 41.7332 38.7142V45.3123C41.7332 45.9597 42.2579 46.4842 42.905 46.4842C43.5522 46.4842 44.0769 45.9597 44.0769 45.3123V38.7142C44.0769 36.4247 42.2216 34.562 39.941 34.562Z" fill="#EE3835"/>
<path id="Vector_19" d="M52.5526 34.562C51.9054 34.562 51.3807 35.0865 51.3807 35.7339V42.3326C51.3807 43.3295 50.5771 44.1404 49.5893 44.1404C48.601 44.1404 47.7971 43.3295 47.7971 42.3326V35.7339C47.7971 35.0865 47.2724 34.562 46.6252 34.562C45.9781 34.562 45.4534 35.0865 45.4534 35.7339V42.3326C45.4534 44.6219 47.3088 46.4842 49.5893 46.4842C51.8695 46.4842 53.7245 44.6219 53.7245 42.3326V35.7339C53.7245 35.0865 53.1998 34.562 52.5526 34.562Z" fill="#EE3835"/>
</g>
<g id="Group_4">
<path id="Vector_20" d="M29.9745 64.303C29.8801 64.303 29.7848 64.2861 29.6939 64.2519L27.3586 63.3779L25.0232 64.2519C24.9323 64.2861 24.8372 64.3028 24.7426 64.3028C24.5765 64.3028 24.4117 64.2509 24.2732 64.1508C24.0562 63.9934 23.9329 63.7383 23.9448 63.4711L24.0568 60.987L22.5015 59.0433C22.3343 58.834 22.2836 58.5551 22.3665 58.3006C22.4493 58.0465 22.6548 57.8506 22.9134 57.7795L25.3179 57.1184L26.6922 55.0431C26.8398 54.8198 27.0903 54.6856 27.3586 54.6856C27.6268 54.6856 27.8773 54.8198 28.025 55.0431L29.399 57.1184L31.8039 57.7795C32.0625 57.8506 32.2681 58.0465 32.3511 58.3006C32.434 58.5551 32.3831 58.834 32.2161 59.0433L30.6606 60.987L30.7726 63.4712C30.7843 63.7383 30.6611 63.9937 30.4442 64.1508C30.3054 64.2512 30.1407 64.303 29.9745 64.303Z" fill="#FECF05"/>
<path id="Vector_21" d="M42.6157 64.303C42.5211 64.303 42.4261 64.2861 42.3349 64.2519L39.9997 63.3779L37.6646 64.2519C37.5735 64.2861 37.4785 64.3028 37.384 64.3028C37.2177 64.3028 37.0529 64.2509 36.9144 64.1508C36.6974 63.9934 36.5743 63.7383 36.5863 63.4711L36.6983 60.987L35.1427 59.0433C34.9755 58.834 34.9246 58.5551 35.0077 58.3006C35.0907 58.0465 35.2963 57.8506 35.5547 57.7795L37.9593 57.1184L39.3335 55.0431C39.4811 54.8198 39.7316 54.6856 39.9999 54.6856C40.2682 54.6856 40.5186 54.8198 40.6661 55.0431L42.0404 57.1184L44.4451 57.7795C44.7036 57.8506 44.9093 58.0465 44.9922 58.3006C45.0752 58.5551 45.0243 58.834 44.8571 59.0433L43.3018 60.987L43.4138 63.4712C43.4255 63.7383 43.3026 63.9937 43.0854 64.1508C42.9468 64.2512 42.7819 64.303 42.6157 64.303Z" fill="#FECF05"/>
<path id="Vector_22" d="M55.257 64.303C55.1625 64.303 55.0673 64.2861 54.9763 64.2519L52.6411 63.3779L50.3058 64.2519C50.2145 64.2861 50.1197 64.3028 50.0252 64.3028C49.8591 64.3028 49.6942 64.2509 49.5556 64.1508C49.3388 63.9934 49.2155 63.7383 49.2272 63.4711L49.3394 60.987L47.7838 59.0433C47.6166 58.834 47.5658 58.5551 47.6488 58.3006C47.7317 58.0465 47.9372 57.8506 48.1958 57.7795L50.6005 57.1184L51.9744 55.0431C52.1222 54.8198 52.3727 54.6856 52.6411 54.6856C52.9092 54.6856 53.1598 54.8198 53.3073 55.0431L54.6817 57.1184L57.0864 57.7795C57.3448 57.8506 57.5505 58.0465 57.6334 58.3006C57.7166 58.5551 57.6656 58.834 57.4984 59.0433L55.943 60.987L56.0548 63.4712C56.0667 63.7383 55.9434 63.9937 55.7263 64.1508C55.5878 64.2512 55.4231 64.303 55.257 64.303Z" fill="#FECF05"/>
<path id="Vector_23" d="M29.6155 25.5128C29.5211 25.5128 29.4258 25.4961 29.3349 25.4617L26.9996 24.5879L24.6643 25.4617C24.5733 25.4961 24.4782 25.5126 24.3836 25.5126C24.2176 25.5126 24.0527 25.4608 23.9143 25.3608C23.6972 25.2034 23.574 24.9483 23.5858 24.6809L23.6979 22.1968L22.1424 20.2533C21.9752 20.044 21.9244 19.7653 22.0074 19.5108C22.0902 19.2567 22.2957 19.0606 22.5543 18.9895L24.9588 18.3286L26.333 16.2531C26.4807 16.0298 26.7311 15.8958 26.9994 15.8958C27.2677 15.8958 27.5182 16.0298 27.6658 16.2531L29.0399 18.3286L31.4447 18.9895C31.7033 19.0606 31.909 19.2567 31.9918 19.5108C32.0747 19.7653 32.024 20.044 31.8568 20.2533L30.3013 22.1968L30.4133 24.6811C30.4251 24.9483 30.3018 25.2037 30.0849 25.3608C29.9465 25.4611 29.7819 25.5128 29.6155 25.5128Z" fill="#FECF05"/>
<path id="Vector_24" d="M55.6159 25.5128C55.5214 25.5128 55.4262 25.4961 55.3351 25.4617L53 24.5879L50.6647 25.4617C50.5734 25.4961 50.4786 25.5126 50.384 25.5126C50.218 25.5126 50.0531 25.4608 49.9145 25.3608C49.6976 25.2034 49.5744 24.9483 49.5861 24.6809L49.6983 22.1968L48.1426 20.2533C47.9755 20.044 47.9247 19.7653 48.0076 19.5108C48.0906 19.2567 48.2961 19.0606 48.5547 18.9895L50.9594 18.3286L52.3333 16.2531C52.4811 16.0298 52.7315 15.8958 53 15.8958C53.2681 15.8958 53.5187 16.0298 53.6662 16.2531L55.0406 18.3286L57.4453 18.9895C57.7037 19.0606 57.9094 19.2567 57.9923 19.5108C58.0755 19.7653 58.0245 20.044 57.8573 20.2533L56.3019 22.1968L56.4137 24.6811C56.4256 24.9483 56.3023 25.2037 56.0851 25.3608C55.9467 25.4611 55.7822 25.5128 55.6159 25.5128Z" fill="#FECF05"/>
<path id="Vector_25" d="M44.4747 26.5192C44.313 26.5192 44.1505 26.4906 43.9944 26.432L39.9997 24.9373L36.0049 26.432C35.8491 26.4906 35.6866 26.519 35.5249 26.519C35.2404 26.519 34.9586 26.4303 34.7216 26.2592C34.3505 25.9901 34.1397 25.5537 34.1602 25.0965L34.3518 20.8472L31.6905 17.5223C31.4044 17.1642 31.3176 16.6873 31.4596 16.2518C31.6016 15.8173 31.9532 15.482 32.3954 15.3606L36.509 14.2295L38.8596 10.679C39.1122 10.2973 39.5407 10.0678 39.9996 10.0678C40.4583 10.0678 40.8869 10.2973 41.1393 10.679L43.4902 14.2295L47.6038 15.3606C48.0463 15.482 48.3979 15.8173 48.5399 16.2518C48.6819 16.6873 48.5947 17.1642 48.3088 17.5223L45.648 20.8472L45.8396 25.097C45.8597 25.5539 45.6493 25.9909 45.2779 26.2593C45.041 26.4309 44.7593 26.5192 44.4747 26.5192Z" fill="#FECF05"/>
</g>
<path id="Vector_26" opacity="0.1" d="M14.6497 68.8076C7.10751 61.2523 2.95392 51.2078 2.95392 40.5233C2.95392 29.8387 7.10751 19.7942 14.6497 12.2389C21.8506 5.02575 31.3178 0.909661 41.4427 0.551692C40.9631 0.534661 40.4824 0.523254 40 0.523254C29.3339 0.523254 19.3064 4.68404 11.7642 12.2389C4.22204 19.7942 0.0686035 29.8387 0.0686035 40.5233C0.0686035 51.2078 4.2222 61.2523 11.7644 68.8076C19.3064 76.3625 29.3339 80.5233 40 80.5233C40.4824 80.5233 40.9631 80.5118 41.4427 80.4948C31.3178 80.1368 21.8506 76.0208 14.6497 68.8076Z" fill="black"/>
</g>
<defs>
<clipPath id="clip0_9_1290">
<rect width="80" height="80" fill="white" transform="translate(0 0.523254)"/>
</clipPath>
</defs>
</svg>
