<svg width="1057" height="984" viewBox="0 0 1057 984" fill="none" xmlns="http://www.w3.org/2000/svg">
<g opacity="0.16">
<path d="M120.266 615.107C54.2118 473.454 115.497 305.075 257.15 239.021C398.803 172.967 567.182 234.252 633.236 375.905C699.29 517.558 638.004 685.938 496.352 751.991C354.699 818.045 186.319 756.76 120.266 615.107Z" stroke="#707070"/>
<path d="M172.459 727.036C106.522 585.634 167.901 417.457 309.555 351.403C451.208 285.349 619.493 346.432 685.429 487.834C751.366 629.236 689.987 797.413 548.334 863.467C406.68 929.521 238.396 868.438 172.459 727.036Z" stroke="#707070"/>
<path d="M427.131 608.28C361.195 466.879 422.573 298.702 564.227 232.648C705.881 166.593 874.165 227.677 940.102 369.079C1006.04 510.48 944.66 678.657 803.006 744.711C661.353 810.766 493.068 749.682 427.131 608.28Z" stroke="#707070"/>
</g>
</svg>
