<svg width="80" height="81" viewBox="0 0 80 81" fill="none" xmlns="http://www.w3.org/2000/svg">
<g id="cash-back 1">
<g id="Flat">
<g id="Group">
<path id="Vector" d="M72.5 48.0233H23.75L7.5 33.0233H56.25L72.5 48.0233Z" fill="#FA7D29"/>
<path id="Vector_2" d="M56.875 4.27325H23.125C21.3991 4.27325 20 5.67236 20 7.39825V73.6483C20 75.3741 21.3991 76.7733 23.125 76.7733H56.875C58.6009 76.7733 60 75.3741 60 73.6483V7.39825C60 5.67236 58.6009 4.27325 56.875 4.27325Z" fill="#FAC850"/>
<path id="Vector_3" d="M20 13.0233H60V68.0233H20V13.0233Z" fill="#FEF4DC"/>
<g id="Group_2">
<path id="Vector_4" d="M65 33.0233H7.5L14.7794 13.0233H72.2794L65 33.0233Z" fill="#FA5D3F"/>
<g id="Group_3">
<path id="Vector_5" d="M65.2207 68.0233H7.7207L15.0001 48.0233H72.5001L65.2207 68.0233Z" fill="#FA5D3F"/>
<g id="Group_4">
<path id="Vector_6" d="M20 19.5858V26.4608C20.0009 27.2064 20.2975 27.9213 20.8247 28.4485C21.352 28.9758 22.0668 29.2724 22.8125 29.2733H27.5V26.7733H22.8125C22.7296 26.7733 22.6501 26.7403 22.5915 26.6817C22.5329 26.6231 22.5 26.5436 22.5 26.4608V19.5858C22.5 19.5029 22.5329 19.4234 22.5915 19.3648C22.6501 19.3062 22.7296 19.2733 22.8125 19.2733H27.5V16.7733H22.8125C22.0668 16.7741 21.352 17.0707 20.8247 17.598C20.2975 18.1252 20.0009 18.8401 20 19.5858Z" fill="#FFFEFD"/>
<path id="Vector_7" d="M37.1719 17.8303C37.1259 17.5359 36.9762 17.2676 36.7499 17.0738C36.5236 16.88 36.2355 16.7734 35.9375 16.7733H32.8125C32.5145 16.7734 32.2264 16.88 32.0001 17.0738C31.7738 17.2676 31.6241 17.5359 31.5781 17.8303L30.0156 27.8303C30.0054 27.8941 30.0002 27.9586 30 28.0233V29.2733H32.5V28.1203L32.9063 25.5233H35.8437L36.25 28.1203V29.2733H38.75V28.0233C38.7498 27.9586 38.7446 27.8941 38.7344 27.8303L37.1719 17.8303ZM33.2969 23.0233L33.8828 19.2733H34.8681L35.4541 23.0233H33.2969Z" fill="#FFFEFD"/>
<path id="Vector_8" d="M57.5 16.7733V21.7733H53.75V16.7733H51.25V29.2733H53.75V24.2733H57.5V29.2733H60V16.7733H57.5Z" fill="#FFFEFD"/>
<path id="Vector_9" d="M41.25 19.5858V21.4608C41.2509 22.2064 41.5475 22.9213 42.0747 23.4485C42.602 23.9758 43.3168 24.2724 44.0625 24.2733H45.9375C46.0204 24.2733 46.0999 24.3062 46.1585 24.3648C46.2171 24.4234 46.25 24.5029 46.25 24.5858V26.4608C46.25 26.5436 46.2171 26.6231 46.1585 26.6817C46.0999 26.7403 46.0204 26.7733 45.9375 26.7733H41.25V29.2733H45.9375C46.6832 29.2724 47.398 28.9758 47.9253 28.4485C48.4525 27.9213 48.7491 27.2064 48.75 26.4608V24.5858C48.7491 23.8401 48.4525 23.1252 47.9253 22.598C47.398 22.0707 46.6832 21.7741 45.9375 21.7733H44.0625C43.9796 21.7733 43.9001 21.7403 43.8415 21.6817C43.7829 21.6231 43.75 21.5436 43.75 21.4608V19.5858C43.75 19.5029 43.7829 19.4234 43.8415 19.3648C43.9001 19.3062 43.9796 19.2733 44.0625 19.2733H48.75V16.7733H44.0625C43.3168 16.7741 42.602 17.0707 42.0747 17.598C41.5475 18.1252 41.2509 18.8401 41.25 19.5858Z" fill="#FFFEFD"/>
<path id="Vector_10" d="M57.5 52.4225L53.75 55.4225V51.7733H51.25V64.2733H53.75V60.624L57.5 63.624V64.2733H60V63.0233C60 62.8358 59.9579 62.6508 59.8768 62.4818C59.7957 62.3129 59.6776 62.1643 59.5312 62.0472L54.5011 58.0233L59.5312 53.9993C59.6776 53.8822 59.7957 53.7337 59.8768 53.5647C59.9579 53.3957 60 53.2107 60 53.0233V51.7733H57.5V52.4225Z" fill="#FFFEFD"/>
<path id="Vector_11" d="M37.1719 52.8303C37.1259 52.5359 36.9762 52.2676 36.7499 52.0738C36.5236 51.88 36.2355 51.7734 35.9375 51.7733H32.9688C32.6739 51.7732 32.3886 51.8774 32.1631 52.0674C31.9377 52.2574 31.7867 52.521 31.7367 52.8115L30.018 62.8115C30.0061 62.8815 30 62.9523 30 63.0233V64.2733H32.5V63.13L32.948 60.5233H35.8437L36.25 63.1203V64.2733H38.75V63.0233C38.7498 62.9586 38.7446 62.8941 38.7344 62.8303L37.1719 52.8303ZM33.3777 58.0233L34.0222 54.2733H34.8677L35.4536 58.0233H33.3777Z" fill="#FFFEFD"/>
<path id="Vector_12" d="M23.75 51.7733H20C19.6685 51.7733 19.3505 51.905 19.1161 52.1394C18.8817 52.3738 18.75 52.6917 18.75 53.0233V63.0233C18.75 63.3548 18.8817 63.6727 19.1161 63.9071C19.3505 64.1416 19.6685 64.2733 20 64.2733H23.75C24.4741 64.2737 25.1828 64.0643 25.7904 63.6705C26.3981 63.2767 26.8786 62.7154 27.174 62.0543C27.4694 61.3932 27.567 60.6607 27.4549 59.9453C27.3429 59.23 27.026 58.5624 26.5427 58.0233C27.026 57.4841 27.3429 56.8165 27.4549 56.1012C27.567 55.3858 27.4694 54.6533 27.174 53.9922C26.8786 53.3311 26.3981 52.7698 25.7904 52.376C25.1828 51.9822 24.4741 51.7728 23.75 51.7733ZM21.25 54.2733H23.75C24.0815 54.2733 24.3995 54.405 24.6339 54.6394C24.8683 54.8738 25 55.1917 25 55.5233C25 55.8548 24.8683 56.1727 24.6339 56.4071C24.3995 56.6416 24.0815 56.7733 23.75 56.7733H21.25V54.2733ZM23.75 61.7733H21.25V59.2733H23.75C24.0815 59.2733 24.3995 59.405 24.6339 59.6394C24.8683 59.8738 25 60.1917 25 60.5233C25 60.8548 24.8683 61.1727 24.6339 61.4071C24.3995 61.6416 24.0815 61.7733 23.75 61.7733Z" fill="#FFFEFD"/>
<path id="Vector_13" d="M41.25 54.5858V61.4608C41.2509 62.2064 41.5475 62.9213 42.0747 63.4485C42.602 63.9758 43.3168 64.2724 44.0625 64.2733H48.75V61.7733H44.0625C43.9796 61.7733 43.9001 61.7403 43.8415 61.6817C43.7829 61.6231 43.75 61.5436 43.75 61.4608V54.5858C43.75 54.5029 43.7829 54.4234 43.8415 54.3648C43.9001 54.3062 43.9796 54.2733 44.0625 54.2733H48.75V51.7733H44.0625C43.3168 51.7741 42.602 52.0707 42.0747 52.598C41.5475 53.1252 41.2509 53.8401 41.25 54.5858Z" fill="#FFFEFD"/>
</g>
</g>
</g>
</g>
</g>
</g>
</svg>
