<svg width="80" height="81" viewBox="0 0 80 81" fill="none" xmlns="http://www.w3.org/2000/svg">
<g id="deposit 1">
<g id="Group">
<g id="Group_2">
<path id="Vector" d="M37.5 26.7733H22.5C11.4544 26.7733 2.5 35.7276 2.5 46.7733V69.2733C2.5 72.0347 4.73859 74.2733 7.5 74.2733H52.5C55.2614 74.2733 57.5 72.0347 57.5 69.2733V46.7733C57.5 35.7276 48.5456 26.7733 37.5 26.7733Z" fill="#5F78BE"/>
</g>
<g id="Group_3">
<path id="Vector_2" d="M37.5 26.7733H30C32.7614 26.7733 35 29.0118 35 31.7733V69.2733C35 72.0347 32.7614 74.2733 30 74.2733H52.5C55.2614 74.2733 57.5 72.0347 57.5 69.2733V46.7733C57.5 35.7276 48.5456 26.7733 37.5 26.7733Z" fill="#46508C"/>
</g>
<g id="Group_4">
<path id="Vector_3" d="M37.5 26.7733H22.5C21.1192 26.7733 20 25.654 20 24.2733C20 22.8925 21.1192 21.7733 22.5 21.7733H37.5C38.8808 21.7733 40 22.8925 40 24.2733C40 25.654 38.8808 26.7733 37.5 26.7733Z" fill="#FAA019"/>
</g>
<g id="Group_5">
<path id="Vector_4" d="M37.5 21.7733H22.5C18.3578 21.7733 15 18.4154 15 14.2733V9.27325C15 7.89247 16.1192 6.77325 17.5 6.77325H18.9645C19.6275 6.77325 20.2634 7.03669 20.7323 7.50544L23.2323 10.0054C24.2086 10.9817 25.7916 10.9817 26.7678 10.0054L28.2323 8.54091C29.2086 7.56466 30.7916 7.56466 31.7678 8.54091L33.2323 10.0054C34.2086 10.9817 35.7916 10.9817 36.7678 10.0054L39.2678 7.50544C39.7367 7.03654 40.3725 6.77325 41.0356 6.77325H42.5C43.8808 6.77325 45 7.89247 45 9.27325V14.2733C45 18.4154 41.6422 21.7733 37.5 21.7733Z" fill="#5F78BE"/>
</g>
<g id="Group_6">
<path id="Vector_5" d="M42.5 6.77325H41.0355C40.3725 6.77325 39.7366 7.03669 39.2678 7.50544L36.7678 10.0054C35.7914 10.9818 34.2086 10.9817 33.2322 10.0054L31.7678 8.54091C31.2797 8.05279 30.6398 7.80872 30 7.80872V16.7733C30 19.5347 27.7614 21.7733 25 21.7733H37.5C41.6422 21.7733 45 18.4154 45 14.2733V9.27325C45 7.89247 43.8808 6.77325 42.5 6.77325Z" fill="#46508C"/>
</g>
<g id="Group_7">
<g id="Group_8">
<path id="Vector_6" d="M30 66.7733C38.2843 66.7733 45 60.0575 45 51.7733C45 43.489 38.2843 36.7733 30 36.7733C21.7157 36.7733 15 43.489 15 51.7733C15 60.0575 21.7157 66.7733 30 66.7733Z" fill="#46508C"/>
</g>
<path id="Vector_7" d="M33.75 50.5233C34.4403 50.5233 35 49.9636 35 49.2733V48.4289C35 46.2743 33.3517 44.4979 31.25 44.2933V43.0233C31.25 42.3329 30.6903 41.7733 30 41.7733C29.3097 41.7733 28.75 42.3329 28.75 43.0233V44.2933C26.6483 44.4979 25 46.2743 25 48.4289C25 50.2204 26.142 51.8047 27.8416 52.3712L31.3678 53.5465C32.045 53.7723 32.5 54.4036 32.5 55.1173C32.5 56.0303 31.7573 56.7729 30.8444 56.7729H29.1556C28.2427 56.7729 27.5 56.0303 27.5 55.1173V54.2733C27.5 53.5829 26.9403 53.0233 26.25 53.0233C25.5597 53.0233 25 53.5829 25 54.2733V55.1176C25 57.2722 26.6483 59.0486 28.75 59.2533V60.5233C28.75 61.2136 29.3097 61.7733 30 61.7733C30.6903 61.7733 31.25 61.2136 31.25 60.5233V59.2533C33.3517 59.0486 35 57.2722 35 55.1176C35 53.3261 33.858 51.7418 32.1584 51.1753L28.6322 50C27.955 49.7742 27.5 49.1429 27.5 48.4292C27.5 47.5162 28.2427 46.7736 29.1556 46.7736H30.8444C31.7573 46.7736 32.5 47.5162 32.5 48.4292V49.2733C32.5 49.9636 33.0597 50.5233 33.75 50.5233Z" fill="#FAA019"/>
</g>
<g id="Group_9">
<path id="Vector_8" d="M45 66.7733H72.5C75.2614 66.7733 77.5 64.5347 77.5 61.7733V41.7733C77.5 39.0118 75.2614 36.7733 72.5 36.7733H45C42.2386 36.7733 40 39.0118 40 41.7733V61.7733C40 64.5347 42.2386 66.7733 45 66.7733Z" fill="#F06423"/>
</g>
<g id="Group_10">
<path id="Vector_9" d="M45 66.7733H65C67.7614 66.7733 70 64.5347 70 61.7733V41.7733C70 39.0118 67.7614 36.7733 65 36.7733H45C42.2386 36.7733 40 39.0118 40 41.7733V61.7733C40 64.5347 42.2386 66.7733 45 66.7733Z" fill="#FAA019"/>
</g>
<g id="Group_11">
<path id="Vector_10" d="M55 63.0233C61.2132 63.0233 66.25 57.9865 66.25 51.7733C66.25 45.5601 61.2132 40.5233 55 40.5233C48.7868 40.5233 43.75 45.5601 43.75 51.7733C43.75 57.9865 48.7868 63.0233 55 63.0233Z" fill="#F06423"/>
</g>
<g id="Group_12">
<path id="Vector_11" d="M72.5 36.7733H67.5V33.0233C67.5 28.1986 63.5747 24.2733 58.75 24.2733C53.9253 24.2733 50 28.1986 50 33.0233V36.7733H45V33.0233C45 25.4415 51.1683 19.2733 58.75 19.2733C66.3317 19.2733 72.5 25.4415 72.5 33.0233V36.7733Z" fill="#73CDDC"/>
</g>
<g id="Group_13">
<path id="Vector_12" d="M62.5 50.5233H58.535C58.1578 49.4597 57.3137 48.6156 56.25 48.2383V44.2733C56.25 43.5829 55.6903 43.0233 55 43.0233C54.3097 43.0233 53.75 43.5829 53.75 44.2733V48.2383C52.2952 48.7542 51.25 50.1437 51.25 51.7733C51.25 53.8411 52.9322 55.5233 55 55.5233C56.6295 55.5233 58.0191 54.4781 58.535 53.0233H62.5C63.1903 53.0233 63.75 52.4636 63.75 51.7733C63.75 51.0829 63.1903 50.5233 62.5 50.5233ZM53.75 51.7733C53.75 51.084 54.3108 50.5233 55 50.5233C55.6892 50.5233 56.25 51.084 56.25 51.7733C56.25 52.4625 55.6892 53.0233 55 53.0233C54.3108 53.0233 53.75 52.4625 53.75 51.7733Z" fill="#46508C"/>
<path id="Vector_13" d="M55 53.0233C55.6904 53.0233 56.25 52.4636 56.25 51.7733C56.25 51.0829 55.6904 50.5233 55 50.5233C54.3096 50.5233 53.75 51.0829 53.75 51.7733C53.75 52.4636 54.3096 53.0233 55 53.0233Z" fill="#FAA51E"/>
</g>
<path id="Vector_14" d="M65.9911 12.7643L60.8839 7.657C60.318 7.09122 59.5503 6.77325 58.75 6.77325C57.9497 6.77325 57.182 7.09122 56.6161 7.65716L51.5089 12.7645C51.3431 12.9303 51.25 13.1551 51.25 13.3895C51.25 13.8776 51.6458 14.2734 52.1339 14.2734H56.25V24.2734C56.25 25.654 57.3694 26.7734 58.75 26.7734C60.1306 26.7734 61.25 25.654 61.25 24.2734V14.2733H65.3661C65.8542 14.2733 66.25 13.8775 66.25 13.3893C66.25 13.155 66.1569 12.9301 65.9911 12.7643Z" fill="#F06423"/>
</g>
</g>
</svg>
