<svg width="80" height="81" viewBox="0 0 80 81" fill="none" xmlns="http://www.w3.org/2000/svg">
<path d="M41.6022 41.903C41.5981 41.7989 41.6791 41.7111 41.7832 41.7071C41.8874 41.7031 41.9749 41.7841 41.9792 41.8882C41.9832 41.9923 41.9019 42.0801 41.7981 42.0841C41.7956 42.0841 41.7931 42.0841 41.7905 42.0841C41.6897 42.0841 41.6062 42.0046 41.6022 41.903ZM40.8909 42.0509C40.7873 42.0393 40.7128 41.946 40.7247 41.8424C40.7362 41.7388 40.8298 41.6643 40.9332 41.6762C41.0368 41.6877 41.1112 41.7813 41.0994 41.8847C41.0886 41.981 41.0069 42.0522 40.9123 42.0522C40.9052 42.0522 40.8979 42.0519 40.8909 42.0509ZM42.4787 41.8303C42.4588 41.728 42.5255 41.6291 42.6278 41.6093V41.609C42.7302 41.5891 42.829 41.656 42.8491 41.7584C42.869 41.8605 42.8021 41.9596 42.7 41.9795C42.6877 41.9817 42.6756 41.983 42.6635 41.983C42.5753 41.983 42.4963 41.9204 42.4787 41.8303ZM39.9991 41.8799C39.8985 41.8525 39.8391 41.7489 39.8668 41.6483C39.8942 41.5479 39.9978 41.4886 40.0984 41.5162C40.1987 41.5436 40.2581 41.6473 40.2307 41.7479C40.2078 41.8316 40.1319 41.8867 40.0489 41.8867C40.0322 41.8867 40.0157 41.8844 39.9991 41.8799ZM43.3338 41.6244C43.2986 41.5263 43.3492 41.4184 43.4472 41.3829C43.5451 41.3475 43.6532 41.3983 43.6887 41.4961C43.7241 41.5942 43.6733 41.7023 43.5755 41.7378C43.5755 41.7378 43.5755 41.7378 43.5753 41.7375C43.5541 41.7453 43.5325 41.7488 43.5114 41.7488C43.4342 41.7488 43.3617 41.701 43.3338 41.6244ZM39.1434 41.5736C39.0484 41.531 39.0059 41.4194 39.0484 41.3243C39.0909 41.2292 39.2025 41.1867 39.2976 41.2292C39.3927 41.2717 39.4352 41.3834 39.3927 41.4785C39.3612 41.5486 39.2923 41.5901 39.2204 41.5901C39.1945 41.5901 39.1683 41.5849 39.1434 41.5736ZM44.1467 41.2894C44.0967 41.198 44.1301 41.0833 44.2214 41.0333C44.3129 40.9833 44.4276 41.017 44.4774 41.1083C44.5275 41.1998 44.494 41.3142 44.4027 41.3643C44.3738 41.3801 44.3428 41.3874 44.3122 41.3874C44.2455 41.3874 44.1809 41.352 44.1467 41.2894ZM38.3454 41.1395C38.2579 41.0829 38.233 40.9659 38.2895 40.8787C38.3461 40.7911 38.4631 40.7662 38.5504 40.8228C38.6379 40.8794 38.6628 40.9963 38.6062 41.0839C38.57 41.1394 38.5096 41.1699 38.4477 41.1699C38.4125 41.1699 38.3771 41.16 38.3454 41.1395ZM44.8987 40.8339C44.8353 40.7511 44.8509 40.6327 44.9337 40.5693C45.0164 40.5059 45.1349 40.5217 45.1982 40.6043C45.2616 40.687 45.2458 40.8055 45.1633 40.8688C45.1288 40.895 45.0886 40.9078 45.0486 40.9078C44.9918 40.9078 44.9359 40.8824 44.8987 40.8339ZM37.6231 40.5889C37.5454 40.5195 37.5383 40.4005 37.6077 40.3225C37.6769 40.2448 37.7964 40.2378 37.8741 40.3072C37.9518 40.3766 37.9588 40.4956 37.8894 40.5736C37.8522 40.6153 37.8004 40.6367 37.7486 40.6367C37.7038 40.6367 37.659 40.6208 37.6231 40.5889ZM45.573 40.2687C45.4978 40.1968 45.4953 40.0773 45.5675 40.0021C45.6394 39.9269 45.7588 39.9244 45.8341 39.9966C45.9092 40.0687 45.9118 40.188 45.8396 40.2631C45.8026 40.3019 45.7531 40.3213 45.7035 40.3213C45.6565 40.3213 45.6095 40.3039 45.573 40.2687ZM36.993 39.9352C36.9266 39.855 36.9379 39.736 37.0182 39.6696C37.0984 39.6032 37.2174 39.6145 37.2838 39.6948C37.3502 39.775 37.3388 39.894 37.2586 39.9603C37.2234 39.9895 37.1809 40.0036 37.1384 40.0036C37.0843 40.0036 37.0302 39.9802 36.993 39.9352ZM46.1538 39.608C46.0685 39.5482 46.0479 39.4305 46.1077 39.3452C46.1676 39.2599 46.2853 39.2393 46.3706 39.2991C46.4558 39.359 46.4764 39.4767 46.4166 39.562C46.3799 39.6143 46.3213 39.6422 46.2619 39.6422C46.2244 39.6422 46.1867 39.6311 46.1538 39.608ZM36.4696 39.1938C36.4161 39.1042 36.4452 38.9885 36.5348 38.9349C36.624 38.8816 36.74 38.9108 36.7933 39.0004C36.8469 39.0897 36.8177 39.2056 36.7282 39.2589C36.698 39.277 36.6645 39.2856 36.6316 39.2856C36.5675 39.2856 36.5048 39.2529 36.4696 39.1938ZM46.6276 38.8666C46.5343 38.8203 46.4958 38.7071 46.5421 38.6138C46.5881 38.5203 46.7013 38.482 46.7948 38.5283C46.8881 38.5743 46.9264 38.6875 46.8801 38.7811C46.8474 38.8475 46.7805 38.886 46.7111 38.886C46.6829 38.8859 46.6545 38.8796 46.6276 38.8666ZM36.0652 38.3811C36.026 38.2846 36.0728 38.1746 36.1691 38.1357C36.2657 38.0964 36.3756 38.143 36.4148 38.2395C36.454 38.3361 36.4075 38.446 36.3109 38.4853C36.2875 38.4946 36.2636 38.4991 36.24 38.4991C36.1656 38.4991 36.0949 38.4546 36.0652 38.3811ZM46.9825 38.061C46.8831 38.0298 46.828 37.9239 46.8592 37.8245C46.8907 37.7252 46.9966 37.6699 47.0959 37.7013C47.1952 37.7325 47.2503 37.8384 47.2191 37.9377C47.1937 38.0185 47.1195 38.0698 47.0393 38.0698C47.0205 38.0698 47.0013 38.067 46.9825 38.061ZM35.7898 37.516C35.7659 37.4144 35.8288 37.313 35.9302 37.2891C36.0318 37.2652 36.1331 37.3281 36.157 37.4294C36.1809 37.5308 36.118 37.6324 36.0167 37.6563C36.0021 37.6596 35.9875 37.6613 35.9734 37.6613C35.8876 37.6613 35.8102 37.6027 35.7898 37.516ZM47.2096 37.2114C47.1067 37.1955 47.036 37.0995 47.0516 36.9963C47.0675 36.8935 47.1635 36.8225 47.2667 36.8384C47.3695 36.854 47.4405 36.9503 47.4246 37.0532C47.4103 37.1465 47.33 37.2134 47.2383 37.2134C47.2289 37.2134 47.2194 37.2129 47.2096 37.2114ZM35.6502 36.6186C35.6419 36.515 35.7196 36.4242 35.8235 36.4159C35.9274 36.4078 36.0182 36.4855 36.0262 36.5891C36.0345 36.6931 35.9568 36.7838 35.8529 36.7921C35.8479 36.7924 35.8431 36.7926 35.8381 36.7926C35.7405 36.7926 35.658 36.7174 35.6502 36.6186ZM47.1158 36.1483C47.1158 36.143 47.116 36.1379 47.1163 36.1329C47.116 36.1279 47.1158 36.1229 47.1158 36.1175C47.115 36.0134 47.1993 35.9284 47.3034 35.9279C47.4075 35.9274 47.4923 36.0114 47.493 36.1156C47.493 36.1211 47.4928 36.1266 47.4923 36.1321C47.4928 36.1374 47.493 36.1427 47.493 36.1483C47.493 36.2524 47.4085 36.3369 47.3044 36.3369C47.2003 36.3369 47.1158 36.2524 47.1158 36.1483ZM35.8223 35.9131C35.7181 35.9055 35.6402 35.815 35.6477 35.7111C35.6553 35.6073 35.7456 35.529 35.8494 35.5368C35.9533 35.5444 36.0315 35.6347 36.024 35.7386C36.0167 35.8379 35.934 35.9136 35.8361 35.9136C35.8313 35.9136 35.8268 35.9133 35.8223 35.9131ZM47.0469 35.2697C47.0308 35.1669 47.1009 35.0703 47.2038 35.0539C47.3067 35.0379 47.4032 35.108 47.4196 35.2109C47.436 35.3138 47.3658 35.4103 47.2627 35.4267C47.2529 35.4282 47.2428 35.4289 47.233 35.4289C47.1419 35.4289 47.0617 35.3628 47.0469 35.2697ZM35.9239 35.0394C35.8225 35.016 35.7589 34.9149 35.7823 34.8132C35.8054 34.7116 35.9068 34.6482 36.0084 34.6716C36.1097 34.6948 36.1734 34.7961 36.15 34.8975C36.1299 34.985 36.0521 35.0441 35.9664 35.0441C35.9523 35.0441 35.9382 35.0426 35.9239 35.0394ZM46.8499 34.4428C46.818 34.3437 46.8728 34.2373 46.9719 34.2056C47.0712 34.1737 47.1774 34.2283 47.2093 34.3276C47.241 34.4267 47.1864 34.5328 47.0873 34.5648C47.068 34.5708 47.0486 34.5738 47.0295 34.5738C46.9498 34.5738 46.8756 34.5228 46.8499 34.4428ZM36.1583 34.1908C36.0614 34.1523 36.0144 34.0423 36.0529 33.9458C36.0916 33.849 36.2013 33.8017 36.2981 33.8404C36.3947 33.8789 36.442 33.9888 36.4032 34.0854C36.3738 34.1593 36.3029 34.2043 36.2282 34.2043C36.2048 34.2043 36.1812 34.2001 36.1583 34.1908ZM46.5285 33.6558C46.482 33.5625 46.5194 33.4493 46.6127 33.4025C46.7058 33.3558 46.8192 33.3935 46.8657 33.4868C46.9125 33.5798 46.8748 33.693 46.7818 33.7398C46.7546 33.7534 46.7257 33.7599 46.6975 33.7599C46.6283 33.7599 46.5617 33.7217 46.5285 33.6558ZM36.5199 33.3884C36.4301 33.3356 36.4002 33.2199 36.4533 33.1301C36.5061 33.0403 36.6218 33.0107 36.7116 33.0635C36.8014 33.1166 36.831 33.2323 36.7782 33.3218C36.743 33.3814 36.6801 33.4146 36.6155 33.4146C36.5831 33.4146 36.5499 33.4063 36.5199 33.3884ZM46.0906 32.9272C46.0305 32.8422 46.0504 32.7245 46.1354 32.6641C46.2204 32.6037 46.3381 32.6239 46.3985 32.7086C46.3985 32.7086 46.3985 32.7086 46.3982 32.7086C46.4586 32.7936 46.4387 32.9113 46.3537 32.9717C46.3205 32.9953 46.2825 33.0064 46.2445 33.0064C46.1857 33.0064 46.1276 32.979 46.0906 32.9272ZM36.9996 32.6507C36.9191 32.5849 36.907 32.4662 36.9731 32.3854C37.039 32.3049 37.1578 32.2929 37.2385 32.359C37.3192 32.4249 37.331 32.5436 37.2651 32.6244C37.2277 32.6699 37.1736 32.6935 37.119 32.6935C37.077 32.6935 37.0348 32.6797 36.9996 32.6507ZM45.5471 32.2732C45.4744 32.1983 45.4764 32.0791 45.5511 32.0064C45.6261 31.9339 45.7453 31.9357 45.818 32.0107C45.8904 32.0854 45.8886 32.2048 45.8137 32.2775C45.7772 32.313 45.7297 32.3306 45.6824 32.3306C45.6334 32.3306 45.5841 32.3115 45.5471 32.2732ZM37.5858 31.9948C37.5162 31.9173 37.5225 31.7982 37.5997 31.7285C37.6771 31.6588 37.7966 31.6651 37.8663 31.7426C37.936 31.8198 37.9297 31.9392 37.8522 32.0089C37.816 32.0413 37.7709 32.0572 37.7259 32.0572C37.6744 32.0572 37.6231 32.0363 37.5858 31.9948ZM44.9103 31.7094C44.8273 31.6463 44.8109 31.528 44.8741 31.4451C44.9369 31.3621 45.0551 31.3457 45.1382 31.4086C45.2211 31.4714 45.2375 31.5899 45.1746 31.6729C45.1374 31.722 45.081 31.7476 45.024 31.7476C44.9845 31.7476 44.9445 31.735 44.9103 31.7094ZM38.2644 31.4355C38.2073 31.3485 38.2317 31.2313 38.3187 31.1742C38.406 31.1171 38.5229 31.1415 38.58 31.2285C38.6372 31.3158 38.6127 31.4327 38.5257 31.4898C38.4938 31.5107 38.4578 31.5208 38.4224 31.5208C38.361 31.5207 38.3006 31.4906 38.2644 31.4355ZM44.1952 31.2486V31.2489C44.1037 31.1993 44.0695 31.0849 44.119 30.9931C44.1683 30.9015 44.283 30.8673 44.3746 30.9169C44.4661 30.9664 44.5003 31.0808 44.4508 31.1724C44.4166 31.2355 44.3517 31.2715 44.2848 31.2715C44.2543 31.2715 44.2237 31.2642 44.1952 31.2486ZM39.0202 30.986C38.9769 30.8912 39.0189 30.7793 39.1137 30.7363C39.2086 30.6933 39.3205 30.735 39.3635 30.8299C39.4068 30.9247 39.3647 31.0366 39.2699 31.0796V31.0798C39.2445 31.0912 39.2181 31.0967 39.192 31.0967C39.1203 31.0967 39.0516 31.0557 39.0202 30.986ZM43.4181 30.9033V30.903C43.3197 30.8683 43.2684 30.7604 43.3034 30.6623C43.3383 30.5642 43.4462 30.5129 43.5443 30.5476C43.6424 30.5826 43.6937 30.6903 43.659 30.7886C43.6313 30.8658 43.5587 30.9141 43.4812 30.9141C43.4601 30.9141 43.439 30.9106 43.4181 30.9033ZM39.8361 30.6576C39.8082 30.5572 39.8668 30.4533 39.9671 30.4252C40.0675 30.3972 40.1716 30.4558 40.1995 30.5562C40.2277 30.6565 40.1691 30.7607 40.0687 30.7886C40.0516 30.7934 40.0345 30.7956 40.0177 30.7956C39.9352 30.7956 39.8595 30.7411 39.8361 30.6576ZM42.5974 30.6815C42.495 30.6621 42.4279 30.5635 42.447 30.4611C42.4664 30.3588 42.565 30.2914 42.6676 30.3107C42.77 30.3301 42.8371 30.4287 42.8177 30.5311C42.8007 30.6216 42.7217 30.6847 42.6326 30.6847C42.621 30.6847 42.6092 30.6837 42.5974 30.6815ZM40.693 30.4589C40.6807 30.3555 40.7546 30.2614 40.8582 30.2494C40.9616 30.237 41.0554 30.311 41.0677 30.4143C41.0798 30.5177 41.0059 30.6115 40.9025 30.6239C40.8949 30.6249 40.8874 30.6254 40.8801 30.6254C40.7858 30.6254 40.7043 30.5547 40.693 30.4589ZM41.7523 30.5884C41.6482 30.5849 41.5667 30.4976 41.5703 30.3935C41.5735 30.2894 41.6608 30.2076 41.7649 30.2111C41.7649 30.2111 41.7649 30.2111 41.7649 30.2114C41.8691 30.2147 41.9508 30.3019 41.9473 30.4061C41.9437 30.5079 41.86 30.5884 41.7586 30.5884C41.7566 30.5884 41.7543 30.5884 41.7523 30.5884Z" fill="white"/>
<path d="M46.0928 36.1483C46.0928 36.969 45.4286 37.6344 44.6092 37.6344H38.5156C37.6962 37.6344 37.032 36.969 37.032 36.1483C37.032 35.3275 37.6962 34.6621 38.5156 34.6621H44.6092C45.4286 34.6621 46.0928 35.3275 46.0928 36.1483Z" fill="white"/>
<g clip-path="url(#clip0_9_1414)">
<path d="M39.9999 44.8223C39.9999 38.25 34.672 32.922 28.0996 32.922L26.5371 43.9481L28.0996 70.3714H39.9999V44.8223Z" fill="#24B3B3"/>
<path d="M16.1995 44.8223V70.3714H28.0998V32.922C21.5274 32.922 16.1995 38.25 16.1995 44.8223Z" fill="#2EE6A8"/>
<path d="M63.8007 44.8223C63.8007 38.25 58.4727 32.922 51.9004 32.922L50.3379 43.9481L51.9004 70.3714H63.8007V44.8223Z" fill="#E62E6B"/>
<path d="M40 44.8223V70.3714H51.9003V32.922C45.328 32.922 40 38.25 40 44.8223Z" fill="#FF6666"/>
<path d="M37.6562 0.523254H42.3438V7.5545H37.6562V0.523254Z" fill="#FFB655"/>
<path d="M37.6562 0.523254H42.3438V7.5545H37.6562V0.523254Z" fill="#FFB655"/>
<path d="M25.4087 3.2058L29.8665 1.75736L32.0392 8.44408L27.5813 9.89251L25.4087 3.2058Z" fill="#FFDA44"/>
<path d="M25.4087 3.2058L29.8665 1.75736L32.0392 8.44408L27.5813 9.89251L25.4087 3.2058Z" fill="#FFDA44"/>
<path d="M14.5938 9.53674L18.3859 6.78049L22.5203 12.4688L18.7281 15.225L14.5938 9.53674Z" fill="#FFDA44"/>
<path d="M14.5938 9.53674L18.3859 6.78049L22.5203 12.4688L18.7281 15.225L14.5938 9.53674Z" fill="#FFDA44"/>
<path d="M6.26318 18.9112L9.01943 15.1191L14.7077 19.2534L11.9515 23.0456L6.26318 18.9112Z" fill="#FFDA44"/>
<path d="M6.26318 18.9112L9.01943 15.1191L14.7077 19.2534L11.9515 23.0456L6.26318 18.9112Z" fill="#FFDA44"/>
<path d="M1.23193 30.3917L2.68037 25.9338L9.36709 28.1065L7.91865 32.5643L1.23193 30.3917Z" fill="#FFDA44"/>
<path d="M1.23193 30.3917L2.68037 25.9338L9.36709 28.1065L7.91865 32.5643L1.23193 30.3917Z" fill="#FFDA44"/>
<path d="M0 38.1795H7.03125V42.867H0V38.1795Z" fill="#FFDA44"/>
<path d="M0 38.1795H7.03125V42.867H0V38.1795Z" fill="#FFDA44"/>
<path d="M72.9688 38.1795H80V42.867H72.9688V38.1795Z" fill="#FFB655"/>
<path d="M72.9688 38.1795H80V42.867H72.9688V38.1795Z" fill="#FFB655"/>
<path d="M70.6265 28.1064L77.3132 25.9337L78.7616 30.3915L72.0749 32.5642L70.6265 28.1064Z" fill="#FFB655"/>
<path d="M70.6265 28.1064L77.3132 25.9337L78.7616 30.3915L72.0749 32.5642L70.6265 28.1064Z" fill="#FFB655"/>
<path d="M65.2974 19.2345L70.9856 15.1002L73.7419 18.8924L68.0536 23.0267L65.2974 19.2345Z" fill="#FFB655"/>
<path d="M65.2974 19.2345L70.9856 15.1002L73.7419 18.8924L68.0536 23.0267L65.2974 19.2345Z" fill="#FFB655"/>
<path d="M57.4944 12.4758L61.6288 6.7875L65.4209 9.54375L61.2866 15.232L57.4944 12.4758Z" fill="#FFB655"/>
<path d="M57.4944 12.4758L61.6288 6.7875L65.4209 9.54375L61.2866 15.232L57.4944 12.4758Z" fill="#FFB655"/>
<path d="M47.9578 8.44652L50.1304 1.7598L54.5882 3.20824L52.4156 9.89496L47.9578 8.44652Z" fill="#FFB655"/>
<path d="M47.9578 8.44652L50.1304 1.7598L54.5882 3.20824L52.4156 9.89496L47.9578 8.44652Z" fill="#FFB655"/>
<path d="M34.924 26.0976C34.924 22.3286 31.8687 19.2733 28.0996 19.2733L26.5371 26.0976L28.0996 32.922C31.8685 32.922 34.924 29.8665 34.924 26.0976Z" fill="#DBAD5C"/>
<path d="M21.2754 26.0976C21.2754 29.8667 24.3307 32.922 28.0998 32.922V19.2733C24.3307 19.2733 21.2754 22.3286 21.2754 26.0976Z" fill="#E7C994"/>
<path d="M58.7248 26.0976C58.7248 22.3286 55.6695 19.2733 51.9004 19.2733L50.3379 26.0976L51.9004 32.922C55.6695 32.922 58.7248 29.8665 58.7248 26.0976Z" fill="#8C574D"/>
<path d="M45.0759 26.0976C45.0759 29.8667 48.1312 32.922 51.9003 32.922V19.2733C48.1314 19.2733 45.0759 22.3286 45.0759 26.0976Z" fill="#A6756B"/>
<path d="M70.6249 51.6467C70.6249 47.8776 67.5696 44.8223 63.8005 44.8223L62.238 51.6467L63.8005 58.4711C67.5696 58.4709 70.6249 55.4156 70.6249 51.6467Z" fill="#DBAD5C"/>
<path d="M56.9763 51.6467C56.9763 55.4158 60.0316 58.4711 63.8007 58.4711V44.8223C60.0318 44.8223 56.9763 47.8776 56.9763 51.6467Z" fill="#E7C994"/>
<path d="M75.7008 70.3714C75.7008 63.799 70.3729 58.4711 63.8005 58.4711L62.238 69.4972L63.8005 80.5233H75.7008V70.3714Z" fill="#6A4DFF"/>
<path d="M51.9004 70.3714L50.3379 75.8358L51.9004 80.5233H63.8007V58.4709C57.2284 58.4709 51.9004 63.7989 51.9004 70.3714Z" fill="#6680FF"/>
<path d="M46.8244 51.6467C46.8244 47.8776 43.7691 44.8223 40 44.8223L38.4375 51.6467L40 58.4711C43.7691 58.4709 46.8244 55.4156 46.8244 51.6467Z" fill="#FFCDBE"/>
<path d="M33.1755 51.6467C33.1755 55.4158 36.2308 58.4711 39.9999 58.4711V44.8223C36.2308 44.8223 33.1755 47.8776 33.1755 51.6467Z" fill="#FFDECF"/>
<path d="M51.9003 70.3714C51.9003 63.799 46.5723 58.4711 40 58.4711L38.4375 69.4972L40 80.5233H51.9003V70.3714Z" fill="#404A80"/>
<path d="M28.0996 70.3714L26.5371 75.8358L28.0996 80.5233H39.9999V58.4709C33.4276 58.4709 28.0996 63.7989 28.0996 70.3714Z" fill="#5C6699"/>
<path d="M23.0238 51.6467C23.0238 47.8776 19.9685 44.8223 16.1995 44.8223L14.637 51.6467L16.1995 58.4711C19.9684 58.4709 23.0238 55.4156 23.0238 51.6467Z" fill="#8C574D"/>
<path d="M9.375 51.6467C9.375 55.4158 12.4303 58.4711 16.1994 58.4711V44.8223C12.4303 44.8223 9.375 47.8776 9.375 51.6467Z" fill="#A6756B"/>
<path d="M28.0998 70.3714C28.0998 63.799 22.7718 58.4711 16.1995 58.4711L14.637 69.4972L16.1995 80.5233H28.0998V70.3714Z" fill="#FFB655"/>
<path d="M4.29907 70.3714V80.5233H16.1994V58.4709C9.62704 58.4709 4.29907 63.7989 4.29907 70.3714Z" fill="#FFDA44"/>
<g clip-path="url(#clip1_9_1414)">
</g>
</g>
<defs>
<clipPath id="clip0_9_1414">
<rect width="80" height="80" fill="white" transform="translate(0 0.523254)"/>
</clipPath>
<clipPath id="clip1_9_1414">
<rect width="512" height="512" fill="white" transform="translate(33 0.523254)"/>
</clipPath>
</defs>
</svg>
