<svg width="80" height="81" viewBox="0 0 80 81" fill="none" xmlns="http://www.w3.org/2000/svg">
<g id="help-desk 1" clip-path="url(#clip0_9_1745)">
<g id="Group">
<g id="Group_2">
<path id="Vector" fill-rule="evenodd" clip-rule="evenodd" d="M25.0918 12.6128C23.4174 12.6128 22.0439 13.9861 22.0439 15.6651V18.4118C22.0439 20.0909 23.4172 21.4597 25.0918 21.4597H28.1441C31.9036 17.1936 30.115 13.8172 27.9297 12.6126L25.0918 12.6128Z" fill="#9FD4FE"/>
</g>
<g id="Group_3">
<path id="Vector_2" fill-rule="evenodd" clip-rule="evenodd" d="M53.9909 21.4597H55.868L57.0422 21.8779C57.0422 21.8779 57.8336 21.5694 58.282 21.28C59.4572 20.8554 60.3009 19.7264 60.3009 18.4117V15.6651C60.3009 13.9861 58.9322 12.6128 57.2531 12.6128H54.2008C51.842 13.6895 51.4633 19.6073 53.9909 21.4597Z" fill="#9FD4FE"/>
</g>
<g id="Group_4">
<path id="Vector_3" fill-rule="evenodd" clip-rule="evenodd" d="M22.0441 18.4118C22.0441 20.0909 23.4174 21.4597 25.0919 21.4597H28.1443C28.8058 20.7114 29.2939 19.9859 29.6408 19.297H27.9343H25.0918C23.4174 19.297 22.0439 17.9237 22.0439 16.2492L22.0441 18.4118Z" fill="#85BEEF"/>
</g>
<g id="Group_5">
<path id="Vector_4" fill-rule="evenodd" clip-rule="evenodd" d="M54.2008 19.297H52.5764C52.8547 20.1959 53.3247 20.9715 53.9908 21.4597H57.075H57.253C58.932 21.4597 60.3008 20.0864 60.3008 18.4118V16.2492C60.3008 17.9237 58.932 19.297 57.253 19.297H57.075H54.2008Z" fill="#85BEEF"/>
</g>
<g id="Group_6">
<path id="Vector_5" fill-rule="evenodd" clip-rule="evenodd" d="M44.4096 30.9318C43.2005 31.3836 42.1329 31.6072 41.0698 31.6072C40.0021 31.6072 38.9344 31.3836 37.7254 30.9318C36.6213 30.5212 35.5537 29.9509 34.5544 29.2618V36.9956L40.2029 41.654H41.9321L44.4962 39.5415L45.8649 38.4145L47.5804 36.9956V29.2618C46.5859 29.9507 45.5183 30.5212 44.4096 30.9318Z" fill="#F5A96C"/>
</g>
<g id="Group_7">
<path id="Vector_6" fill-rule="evenodd" clip-rule="evenodd" d="M41.0698 31.607C40.0021 31.607 38.9344 31.3834 37.7254 30.9317C36.6213 30.5211 35.5537 29.9508 34.5544 29.2617V33.1308C35.8958 34.6318 41.1154 36.6212 44.4826 34.8873V39.4545L47.5805 35.2887V30.9679V29.2615C46.5858 29.9504 45.5183 30.5208 44.4096 30.9315C43.2005 31.3836 42.1329 31.607 41.0698 31.607Z" fill="#EA9A58"/>
</g>
<g id="Group_8">
<path id="Vector_7" fill-rule="evenodd" clip-rule="evenodd" d="M38.2092 60.0233L41.07 48.1422L30.4211 36.6215C28.4911 37.347 26.438 38.2733 24.5309 39.4184C21.3326 41.3439 18.5448 43.8989 17.4545 47.184C17.1351 48.1376 16.9617 49.1551 16.9617 50.2364V58.5404C16.8933 59.7222 17.1761 60.0233 18.335 60.0233H32.9305H38.2092Z" fill="#375E7D"/>
</g>
<g id="Group_9">
<path id="Vector_8" fill-rule="evenodd" clip-rule="evenodd" d="M65.1737 50.2364C65.1737 43.2145 57.8234 38.9164 51.7142 36.6214L41.0698 48.142L44.2272 60.0231H63.8005C64.9639 60.0231 65.2422 59.722 65.1737 58.5403V50.2364Z" fill="#375E7D"/>
</g>
<g id="Group_10">
<path id="Vector_9" fill-rule="evenodd" clip-rule="evenodd" d="M45.8924 60.0233L43.7435 48.1422L41.0697 46.6958L38.3916 48.1422L36.2427 60.0233H41.0697H45.8924Z" fill="#EB5468"/>
</g>
<g id="Group_11">
<path id="Vector_10" fill-rule="evenodd" clip-rule="evenodd" d="M41.0698 46.6958L38.3915 48.1422L38.0403 50.0995H41.2825C41.5159 50.0995 41.7161 50.2665 41.7576 50.4964L43.4834 60.0233H45.8925L43.7436 48.1422L41.0698 46.6958Z" fill="#E5384F"/>
</g>
<g id="Group_12">
<path id="Vector_11" fill-rule="evenodd" clip-rule="evenodd" d="M45.9746 43.397L44.4963 41.4086L41.0697 40.6593L37.7463 41.2073L36.165 43.397L38.3916 48.1422H41.0697H43.7435L45.9746 43.397Z" fill="#EB5468"/>
</g>
<g id="Group_13">
<path id="Vector_12" fill-rule="evenodd" clip-rule="evenodd" d="M41.0697 40.6593H37.7463L36.165 43.397L37.2418 45.692L39.0302 44.6928L40.8341 43.6879C40.9805 43.6064 41.1588 43.6065 41.305 43.6884L43.3602 44.8387L44.8932 45.692L45.9744 43.397L44.7885 41.2879L41.0697 40.6593Z" fill="#E5384F"/>
</g>
<g id="Group_14">
<path id="Vector_13" fill-rule="evenodd" clip-rule="evenodd" d="M41.0698 40.6593L34.5545 35.289C33.3364 35.6175 31.9128 36.0601 30.4209 36.6214L34.1939 43.9223C34.3189 44.1642 34.619 44.255 34.8571 44.1228L36.1651 43.3968L41.0698 40.6593Z" fill="#EFF6FF"/>
</g>
<g id="Group_15">
<path id="Vector_14" fill-rule="evenodd" clip-rule="evenodd" d="M51.7142 36.6214C50.2223 36.0601 48.8033 35.6176 47.5806 35.289L41.0698 40.6593L45.9745 43.397L47.2822 44.1228C47.5203 44.255 47.8206 44.164 47.9456 43.922L51.7142 36.6214Z" fill="#EFF6FF"/>
</g>
<g id="Group_16">
<path id="Vector_15" fill-rule="evenodd" clip-rule="evenodd" d="M51.7142 36.6214C50.2223 36.0601 48.8032 35.6176 47.5806 35.289L45.8651 36.7034L44.4963 37.8304C45.7876 38.2411 47.1927 38.7522 48.6163 39.3681C49.0726 39.5643 49.5243 39.7742 49.976 39.9886L51.7142 36.6214Z" fill="#D9EEFF"/>
</g>
<g id="Group_17">
<path id="Vector_16" fill-rule="evenodd" clip-rule="evenodd" d="M65.1736 50.2364C65.1736 43.2145 57.8233 38.9164 51.7141 36.6214L49.9758 39.9886C56.085 42.2836 60.1549 46.5815 60.1549 53.6036V60.0233H63.8004C64.9638 60.0233 65.2421 59.7222 65.1736 58.5404V50.2364Z" fill="#2B4D66"/>
</g>
<g id="Group_18">
<path id="Vector_17" fill-rule="evenodd" clip-rule="evenodd" d="M54.201 19.6073V16.2264C52.3805 12.0743 33.2407 2.09122 27.9346 17.189V19.6073C27.9346 24.3206 32.3647 30.2337 37.7805 32.2412C38.9668 32.6837 40.0161 32.9028 41.07 32.9028C42.1194 32.9028 43.1688 32.6837 44.3596 32.2412C49.7707 30.2337 54.201 24.3204 54.201 19.6073Z" fill="#FFBC85"/>
</g>
<g id="Group_19">
<path id="Vector_18" fill-rule="evenodd" clip-rule="evenodd" d="M54.2009 11.5131C54.2009 1.87216 38.6792 -2.93675 33.8201 3.37325C27.4737 3.9345 27.939 12.38 27.939 13.4933L27.9343 16.2264V17.189C32.4193 13.8583 30.932 14.6933 34.1348 12.7131C39.0259 9.69263 43.1823 16.2264 50.9385 16.2264H54.2007L54.2009 11.5131Z" fill="#375E7D"/>
</g>
<g id="Group_20">
<path id="Vector_19" fill-rule="evenodd" clip-rule="evenodd" d="M47.4803 30.5987C49.9988 28.8558 52.0702 26.3464 53.22 23.7729C53.8497 22.3676 54.201 20.9395 54.201 19.6073V16.2264C52.8778 15.0948 51.4361 14.5839 50.008 16.1945V19.6073C50.008 23.3761 47.1792 27.9114 43.2738 30.6079C42.2974 31.2833 41.2525 31.8398 40.1667 32.2414C39.7516 32.3965 39.3592 32.5197 38.9714 32.6201C39.6969 32.8117 40.3813 32.9029 41.0702 32.9029C42.1196 32.9029 43.1689 32.6839 44.3597 32.2414C45.4453 31.8398 46.4994 31.274 47.4803 30.5987Z" fill="#F5A96C"/>
</g>
<g id="Group_21">
<path id="Vector_20" fill-rule="evenodd" clip-rule="evenodd" d="M50.0079 16.1945C50.3135 16.2173 50.6239 16.2264 50.9387 16.2264H54.2009V11.5131C54.2009 4.12153 45.0804 -0.427375 38.6335 0.695125C44.2364 1.55294 50.0079 5.63653 50.0079 11.5131V16.1945Z" fill="#2B4D66"/>
</g>
<g id="Group_22">
<path id="Vector_21" fill-rule="evenodd" clip-rule="evenodd" d="M4.02666 56.7062H75.9732C78.186 56.7062 79.9974 58.5176 79.9974 60.7304V76.499C79.9974 78.7118 78.1862 80.5233 75.9732 80.5233H4.02666C1.81385 80.5233 0.00244141 78.7118 0.00244141 76.499V60.7304C0.00259766 58.5176 1.81385 56.7062 4.02666 56.7062Z" fill="#9FD4FE"/>
</g>
<g id="Group_23">
<path id="Vector_22" fill-rule="evenodd" clip-rule="evenodd" d="M79.9973 76.499V60.7304C79.9973 58.5176 78.186 56.7062 75.973 56.7062H69.9551C72.1679 56.7062 73.9793 58.5176 73.9793 60.7304V63.719V76.499C73.9793 78.7118 72.168 80.5233 69.9551 80.5233H75.973C78.186 80.5233 79.9973 78.7118 79.9973 76.499Z" fill="#85BEEF"/>
</g>
<g id="Group_24">
<path id="Vector_23" d="M8.39281 74.0881C6.90671 74.0881 5.4564 73.4653 4.51343 72.422C4.06625 71.9273 4.10468 71.164 4.59937 70.717C5.0939 70.27 5.85734 70.3084 6.30437 70.8029C6.79734 71.3481 7.57796 71.6736 8.39265 71.6736C9.14 71.6736 9.6825 71.2262 9.75625 70.8117C9.85453 70.2617 8.98703 69.8965 8.7189 69.7976C7.38578 69.3053 6.2014 68.7761 6.15171 68.7537C6.09421 68.7279 6.0389 68.6978 5.98625 68.6636C5.03656 68.0448 4.54781 66.9598 4.71093 65.8315C4.88406 64.634 5.75859 63.6611 6.99328 63.2922C9.39843 62.5658 11.3808 64.1984 11.4641 64.2681C11.9747 64.6969 12.0409 65.4584 11.6122 65.9689C11.1855 66.4772 10.4292 66.5453 9.91859 66.1231C9.88671 66.0978 8.8214 65.2611 7.68812 65.6045C7.21171 65.7467 7.11875 66.052 7.10062 66.1767C7.08578 66.2789 7.08843 66.4609 7.24828 66.5984C7.56515 66.7373 8.52562 67.152 9.55484 67.5323C11.7956 68.3581 12.3562 69.9868 12.1334 71.2356C11.8387 72.8886 10.2655 74.0881 8.39281 74.0881Z" fill="#2B4D66"/>
</g>
<g id="Group_25">
<path id="Vector_24" d="M18.6221 74.0881C17.8038 74.0881 17.0526 73.8714 16.3895 73.4437C15.1318 72.6459 14.4902 71.5553 14.4902 70.2072V64.3122C14.4902 63.6453 15.0307 63.105 15.6974 63.105C16.3643 63.105 16.9046 63.6454 16.9046 64.3122V70.2072C16.9046 70.642 17.036 70.9947 17.6901 71.4097C17.968 71.5889 18.2704 71.6736 18.622 71.6736C18.9491 71.6736 19.2334 71.6101 19.4913 71.4797C20.3312 71.0559 20.4443 70.5964 20.4443 70.2026V64.3122C20.4443 63.6453 20.9848 63.105 21.6515 63.105C22.3182 63.105 22.8587 63.6454 22.8587 64.3122V70.2026C22.8587 71.2437 22.4634 72.6844 20.5801 73.6347C19.986 73.9353 19.3268 74.0881 18.6221 74.0881Z" fill="#2B4D66"/>
</g>
<g id="Group_26">
<path id="Vector_25" d="M74.5909 63.1368H69.8595C69.1927 63.1368 68.6523 63.6773 68.6523 64.344C68.6523 65.0109 69.1928 65.5512 69.8595 65.5512H71.0066V72.9126C71.0066 73.5795 71.547 74.1198 72.2137 74.1198C72.8805 74.1198 73.4209 73.5793 73.4209 72.9126V65.5514H74.5908C75.2577 65.5514 75.798 65.0109 75.798 64.3442C75.7983 63.6773 75.2578 63.1368 74.5909 63.1368Z" fill="#2B4D66"/>
<path id="Vector_26" d="M66.1803 66.5387C66.1803 64.6453 64.5827 63.1048 62.6188 63.1048H60.3422C59.6845 63.1048 59.135 63.6548 59.135 64.312V72.8808C59.135 73.5476 59.6755 74.0879 60.3422 74.0879C61.0091 74.0879 61.5494 73.5475 61.5494 72.8808V70.8193L64.067 73.6786C64.3056 73.9497 64.6388 74.0881 64.9736 74.0881C65.257 74.0881 65.5416 73.9889 65.7709 73.7868C66.2714 73.3462 66.3199 72.5834 65.8792 72.0831L63.8383 69.7651C65.2033 69.284 66.1803 68.0194 66.1803 66.5387ZM62.6189 65.5194C63.2406 65.5194 63.7659 65.9862 63.7659 66.5387C63.7659 67.0912 63.2406 67.5581 62.6189 67.5581C62.3689 67.5581 61.9622 67.5595 61.5617 67.5612C61.56 67.1725 61.557 65.9284 61.5553 65.5194H62.6189Z" fill="#2B4D66"/>
<path id="Vector_27" d="M39.3544 63.1048H36.9682C36.3104 63.1048 35.761 63.6548 35.761 64.312V72.8808C35.761 73.5476 36.3015 74.0879 36.9682 74.0879C37.635 74.0879 38.1754 73.5475 38.1754 72.8808V70.3592C38.6166 70.3573 39.0772 70.3558 39.3543 70.3558C41.3785 70.3558 43.0252 68.7295 43.0252 66.7303C43.0252 64.7311 41.3786 63.1048 39.3544 63.1048ZM39.3544 67.9414C39.0793 67.9414 38.624 67.9429 38.1852 67.9448C38.1824 67.4903 38.1801 67.0145 38.1801 66.7303C38.1801 66.489 38.1791 65.997 38.1782 65.5194H39.3544C40.0355 65.5194 40.6108 66.0739 40.6108 66.7303C40.6108 67.3867 40.0355 67.9414 39.3544 67.9414Z" fill="#2B4D66"/>
<path id="Vector_28" d="M29.6044 63.1048H27.2182C26.5604 63.1048 26.011 63.6548 26.011 64.312V72.8808C26.011 73.5476 26.5515 74.0879 27.2182 74.0879C27.885 74.0879 28.4254 73.5475 28.4254 72.8808V70.3592C28.8671 70.3573 29.3277 70.3558 29.6043 70.3558C31.6285 70.3558 33.2752 68.7295 33.2752 66.7303C33.2752 64.7311 31.6286 63.1048 29.6044 63.1048ZM29.6044 67.9414C29.3293 67.9414 28.8732 67.9429 28.4335 67.9448C28.4316 67.4901 28.43 67.0145 28.43 66.7303C28.43 66.489 28.4291 65.997 28.4282 65.5194H29.6044C30.2855 65.5194 30.8608 66.0739 30.8608 66.7303C30.8608 67.3867 30.2855 67.9414 29.6044 67.9414Z" fill="#2B4D66"/>
</g>
<g id="Group_27">
<path id="Vector_29" d="M50.6649 74.0881C47.6369 74.0881 45.1733 71.6245 45.1733 68.5965C45.1733 65.5684 47.6369 63.1048 50.6649 63.1048C53.6929 63.1048 56.1563 65.5684 56.1563 68.5965C56.1562 71.6245 53.6929 74.0881 50.6649 74.0881ZM50.6649 65.5194C48.9682 65.5194 47.5879 66.8998 47.5879 68.5965C47.5879 70.2933 48.9682 71.6736 50.6649 71.6736C52.3615 71.6736 53.7418 70.2933 53.7418 68.5965C53.7418 66.8998 52.3615 65.5194 50.6649 65.5194Z" fill="#2B4D66"/>
</g>
<g id="Group_28">
<path id="Vector_30" d="M58.2825 21.2814V25.1881C58.2825 28.0436 55.9597 30.3695 53.1058 30.3695H41.9364C41.27 30.3695 40.7292 29.8287 40.7292 29.1623C40.7292 28.4943 41.27 27.9551 41.9364 27.9551H53.1058C54.6285 27.9551 55.868 26.7125 55.868 25.1881V21.4601H57.2539C57.6146 21.4601 57.9607 21.3973 58.2825 21.2814Z" fill="#375E7D"/>
</g>
</g>
</g>
<defs>
<clipPath id="clip0_9_1745">
<rect width="80" height="80" fill="white" transform="translate(0 0.523254)"/>
</clipPath>
</defs>
</svg>
