<svg width="80" height="81" viewBox="0 0 80 81" fill="none" xmlns="http://www.w3.org/2000/svg">
<g id="slot-machine (1) 1" clip-path="url(#clip0_9_1700)">
<path id="Vector" d="M72.1074 20.9174H75.7639V49.5714H72.1074V20.9174Z" fill="url(#paint0_linear_9_1700)"/>
<path id="Vector_2" d="M72.1074 24.6729L75.7639 28.3294V20.9174H72.1074V24.6729Z" fill="url(#paint1_linear_9_1700)"/>
<path id="Vector_3" d="M73.9357 24.9399C77.2849 24.9399 80 22.2248 80 18.8756C80 15.5263 77.2849 12.8112 73.9357 12.8112C70.5864 12.8112 67.8713 15.5263 67.8713 18.8756C67.8713 22.2248 70.5864 24.9399 73.9357 24.9399Z" fill="url(#paint2_linear_9_1700)"/>
<path id="Vector_4" d="M73.9357 23.9367C76.7309 23.9367 78.9969 21.6708 78.9969 18.8756C78.9969 16.0804 76.7309 13.8144 73.9357 13.8144C71.1405 13.8144 68.8745 16.0804 68.8745 18.8756C68.8745 21.6708 71.1405 23.9367 73.9357 23.9367Z" fill="url(#paint3_linear_9_1700)"/>
<path id="Vector_5" d="M76.6486 13.4508C77.0575 14.2671 77.2881 15.1883 77.2881 16.1636C77.2881 19.5127 74.5729 22.2279 71.2238 22.2279C70.2486 22.2279 69.3273 21.9973 68.511 21.5883C69.5068 23.5756 71.5618 24.9399 73.9358 24.9399C77.2851 24.9399 80.0001 22.2247 80.0001 18.8756C80.0001 16.5016 78.6357 14.4464 76.6486 13.4508Z" fill="url(#paint4_linear_9_1700)"/>
<path id="Vector_6" d="M73.2651 54.7916H70.5312V44.9753H73.2651C74.9512 44.9753 76.3181 46.3422 76.3181 48.0283V51.7386C76.3181 53.4247 74.9512 54.7916 73.2651 54.7916Z" fill="url(#paint5_linear_9_1700)"/>
<path id="Vector_7" d="M71.6144 44.9753H70.5312V54.7916H73.2651C74.9512 54.7916 76.3181 53.4247 76.3181 51.7386V49.679L71.6144 44.9753Z" fill="url(#paint6_linear_9_1700)"/>
<path id="Vector_8" d="M68.7804 57.3176H62.8684V42.4492H68.7804C70.3561 42.4492 71.6336 43.7266 71.6336 45.3024V54.4644C71.6336 56.0403 70.3563 57.3176 68.7804 57.3176Z" fill="url(#paint7_linear_9_1700)"/>
<path id="Vector_9" d="M65.8633 42.4956L65.9317 42.4492H62.8687V57.3176H68.7807C70.3563 57.3176 71.6338 56.0403 71.6338 54.4644V48.266L65.8633 42.4956Z" fill="url(#paint8_linear_9_1700)"/>
<path id="Vector_10" d="M40.8613 26.0804H25.0066V20.7386C25.0066 16.3604 28.5558 12.8112 32.9341 12.8112C37.3123 12.8112 40.8615 16.3604 40.8615 20.7386V26.0804H40.8613Z" fill="url(#paint9_linear_9_1700)"/>
<path id="Vector_11" d="M36.5629 13.6903C35.0898 12.9306 33.3624 12.9306 31.8893 13.6903C29.3365 15.0067 27.5908 17.6683 27.5908 20.7386V26.0804H40.8614V20.7386C40.8613 17.6683 39.1157 15.0069 36.5629 13.6903Z" fill="url(#paint10_linear_9_1700)"/>
<path id="Vector_12" d="M32.934 12.8112C32.3822 12.8112 31.8435 12.8679 31.3235 12.9753C34.9294 13.7195 37.6405 16.9124 37.6405 20.7388V26.0806H40.8614V20.7388C40.8614 16.3604 37.3122 12.8112 32.934 12.8112Z" fill="url(#paint11_linear_9_1700)"/>
<path id="Vector_13" d="M32.9339 21.3989C35.9916 21.3989 38.4704 19.6074 38.4704 17.3976C38.4704 15.1878 35.9916 13.3963 32.9339 13.3963C29.8762 13.3963 27.3975 15.1878 27.3975 17.3976C27.3975 19.6074 29.8762 21.3989 32.9339 21.3989Z" fill="url(#paint12_linear_9_1700)"/>
<path id="Vector_14" d="M43.4457 27.6647H22.4224V23.3466C22.4224 22.002 23.5124 20.912 24.857 20.912H41.0111C42.3557 20.912 43.4457 22.002 43.4457 23.3466V27.6647Z" fill="url(#paint13_linear_9_1700)"/>
<path id="Vector_15" d="M43.4458 27.6647V23.3466C43.4458 22.8414 43.2917 22.3722 43.0284 21.9832C42.7082 21.8282 42.3504 21.7389 41.9708 21.7389H25.8167C24.4721 21.7389 23.3821 22.829 23.3821 24.1736V27.6647H43.4458Z" fill="url(#paint14_linear_9_1700)"/>
<path id="Vector_16" d="M58.7701 75.0985H7.09762C4.83409 75.0985 2.99927 73.2636 2.99927 71.0001V28.7669C2.99927 26.5033 4.83409 24.6685 7.09762 24.6685H58.7701C61.0335 24.6685 62.8684 26.5033 62.8684 28.7669V71.0001C62.8684 73.2635 61.0335 75.0985 58.7701 75.0985Z" fill="url(#paint15_linear_9_1700)"/>
<path id="Vector_17" d="M44.5182 31.4043H21.3495C20.2844 31.4043 19.4209 30.5408 19.4209 29.4757C19.4209 28.4106 20.2844 27.5471 21.3495 27.5471H44.5182C45.5833 27.5471 46.4468 28.4106 46.4468 29.4757C46.4468 30.541 45.5833 31.4043 44.5182 31.4043Z" fill="url(#paint16_linear_9_1700)"/>
<path id="Vector_18" d="M8.8359 26.4067C6.57253 26.4067 4.73755 28.2415 4.73755 30.5051V72.7383C4.73755 73.4224 4.90602 74.0666 5.20233 74.6337C5.76924 74.93 6.41363 75.0985 7.09771 75.0985H58.7702C61.0336 75.0985 62.8685 73.2637 62.8685 71.0001V28.7669C62.8685 28.0828 62.7001 27.4386 62.4038 26.8715C61.8369 26.5752 61.1925 26.4067 60.5084 26.4067H8.8359Z" fill="url(#paint17_linear_9_1700)"/>
<path id="Vector_19" d="M3.00024 63.2061V65.3311L12.7682 75.0991H58.7709C61.0329 75.0991 62.8677 73.2643 62.8677 71.0006V63.2061H3.00024Z" fill="url(#paint18_linear_9_1700)"/>
<path id="Vector_20" d="M0 37.5391V62.228C0 63.7642 1.13051 65.0687 2.65176 65.2822C22.7959 68.1096 43.072 68.1098 63.2163 65.2822C64.7374 65.0687 65.8681 63.764 65.8681 62.228C65.8681 53.9984 65.8681 45.7687 65.8681 37.5391C65.8681 36.0029 64.7376 34.6985 63.2163 34.485C43.0722 31.6575 22.7959 31.6574 2.65176 34.485C1.13051 34.6985 0 36.0029 0 37.5391Z" fill="url(#paint19_linear_9_1700)"/>
<path id="Vector_21" d="M4.05826 35.6571C2.53716 35.8705 1.40649 37.1752 1.40649 38.7112V63.4001C1.40649 64.0152 1.59002 64.5913 1.905 65.077C2.14014 65.1742 2.38955 65.2454 2.65167 65.2822C22.7958 68.1096 43.0719 68.1098 63.2162 65.2822C64.7373 65.0687 65.868 63.764 65.868 62.228C65.868 53.9984 65.868 45.7687 65.868 37.5391C65.868 36.924 65.6845 36.3479 65.3695 35.8622C65.1343 35.765 64.8849 35.6938 64.6228 35.6571C44.4787 32.8294 24.2024 32.8294 4.05826 35.6571Z" fill="url(#paint20_linear_9_1700)"/>
<path id="Vector_22" d="M20.3847 39.0089V60.7581C20.3847 61.3094 19.847 61.7485 19.2109 61.713C14.7259 61.463 10.242 61.0906 5.78521 60.5996C5.23384 60.5389 4.82129 60.1312 4.82129 59.6505V40.1167C4.82129 39.6357 5.23384 39.2282 5.78521 39.1675C10.242 38.6765 14.7259 38.3041 19.2109 38.0541C19.847 38.0186 20.3847 38.4575 20.3847 39.0089Z" fill="url(#paint21_linear_9_1700)"/>
<path id="Vector_23" d="M40.7159 38.7198V61.0472C40.7159 61.5626 40.2434 61.9871 39.6481 62.0036C37.4061 62.066 35.1672 62.0966 32.936 62.0966C32.9342 62.0966 32.9342 62.0966 32.9342 62.0966C30.7015 62.0966 28.4624 62.0658 26.2204 62.0036C25.6249 61.9869 25.1526 61.5626 25.1526 61.0472V38.7198C25.1526 38.2044 25.6251 37.7799 26.2204 37.7634C28.4625 37.701 30.7016 37.6704 32.9342 37.6704C35.167 37.6704 37.4061 37.7011 39.6481 37.7634C40.2434 37.7799 40.7159 38.2044 40.7159 38.7198Z" fill="url(#paint22_linear_9_1700)"/>
<path id="Vector_24" d="M61.0466 40.1167V59.6503C61.0466 60.1313 60.6341 60.5388 60.0827 60.5995C55.6259 61.0905 51.142 61.4629 46.657 61.7129C46.021 61.7484 45.4832 61.3094 45.4832 60.7579V39.0089C45.4832 38.4575 46.0209 38.0185 46.657 38.0539C51.142 38.304 55.6259 38.6763 60.0827 39.1673C60.6341 39.2282 61.0466 39.6357 61.0466 40.1167Z" fill="url(#paint23_linear_9_1700)"/>
<path id="Vector_25" d="M20.3847 39.0092V44.1018C15.1918 44.4014 10.0023 44.8898 4.82129 45.5655V40.1173C4.82129 39.6356 5.23321 39.2288 5.78458 39.1675C10.2422 38.6773 14.7254 38.3046 19.2103 38.0544C19.847 38.0186 20.3847 38.4577 20.3847 39.0092Z" fill="url(#paint24_linear_9_1700)"/>
<path id="Vector_26" d="M40.7158 38.7198V43.8787C35.5296 43.6914 30.3384 43.6914 25.1523 43.8787V38.7198C25.1523 38.204 25.6254 37.7804 26.2195 37.7633C28.4628 37.7002 30.7009 37.6696 32.934 37.6696C35.1671 37.6696 37.4052 37.7002 39.6485 37.7633C40.2425 37.7804 40.7158 38.204 40.7158 38.7198Z" fill="url(#paint25_linear_9_1700)"/>
<path id="Vector_27" d="M61.0466 40.1171V45.5653C55.8656 44.8895 50.6761 44.4011 45.4832 44.1016V39.009C45.4832 38.4575 46.021 38.0185 46.6576 38.0542C51.1424 38.3044 55.6256 38.6771 60.0833 39.1673C60.6347 39.2287 61.0466 39.6356 61.0466 40.1171Z" fill="url(#paint26_linear_9_1700)"/>
<path id="Vector_28" d="M20.3848 60.7581V43.9047L18.2965 41.8164C18.2076 41.6942 18.0808 41.5772 17.9133 41.4655C17.5561 41.2274 17.1949 41.1084 16.8299 41.1084H8.37637C7.96335 41.1084 7.59049 41.2274 7.25716 41.4655C6.92383 41.7036 6.75708 41.9656 6.75708 42.2513V45.9424C6.75708 46.2227 6.89653 46.4655 7.17449 46.6715L11.7256 51.2243L8.8763 56.1582C8.76508 56.3648 8.70971 56.5713 8.70971 56.7774C8.70971 57.2633 8.92053 57.6801 9.33732 58.0294L12.5602 61.2524C14.7748 61.4354 16.9928 61.5893 19.211 61.7129C19.8471 61.7485 20.3848 61.3095 20.3848 60.7581Z" fill="url(#paint27_linear_9_1700)"/>
<path id="Vector_29" d="M6.75708 45.9424V42.2513C6.75708 41.9656 6.92367 41.7035 7.25716 41.4655C7.59065 41.2274 7.96335 41.1084 8.37637 41.1084H16.83C17.195 41.1084 17.5563 41.2274 17.9135 41.4655C18.2708 41.7036 18.4493 41.9656 18.4493 42.2513V45.2279C18.4493 45.7838 18.1952 46.5377 17.6873 47.4902L12.1149 58.1584C11.94 58.4917 11.591 58.6585 11.067 58.6585C10.4636 58.6585 9.92006 58.4762 9.43598 58.1107C8.95143 57.7457 8.70971 57.3011 8.70971 56.7772C8.70971 56.5711 8.76508 56.3645 8.8763 56.1581L14.7343 46.0136V44.3468H10.4719V45.9422C10.4719 46.26 10.2813 46.5298 9.9003 46.7518C9.51928 46.9744 9.08241 47.0853 8.59065 47.0853C8.08241 47.0853 7.6501 46.9744 7.29277 46.7518C6.93559 46.53 6.75708 46.2602 6.75708 45.9424Z" fill="url(#paint28_linear_9_1700)"/>
<path id="Vector_30" d="M11.0671 58.1112C10.5811 58.1112 10.1556 57.9681 9.76578 57.674C9.30978 57.3305 9.25723 56.9979 9.25723 56.7775C9.25723 56.664 9.28923 56.5484 9.35495 56.4243L15.2819 46.1606V43.7995H9.92421V45.9424C9.92421 46.0498 9.82334 46.1631 9.62444 46.279C9.32593 46.4533 8.98789 46.538 8.5904 46.538C8.18256 46.538 7.85283 46.456 7.58209 46.2873C7.30444 46.1146 7.30444 45.9896 7.30444 45.9424V42.2513C7.30444 42.1234 7.47401 41.9832 7.57519 41.911C7.81566 41.7393 8.07778 41.6558 8.37629 41.6558H16.8299C17.0869 41.6558 17.3419 41.7426 17.6097 41.9211C17.7926 42.0429 17.9018 42.1664 17.9018 42.2513V45.2279C17.9018 45.5455 17.7807 46.151 17.2042 47.2326L11.6298 57.9051C11.6031 57.9554 11.5215 58.1112 11.0671 58.1112Z" fill="url(#paint29_linear_9_1700)"/>
<path id="Vector_31" d="M40.7157 43.9043V61.0472C40.7157 61.5629 40.2425 61.9866 39.6486 62.0037C37.6726 62.0599 35.6999 62.0889 33.7341 62.0956L29.6865 58.0481L29.6679 58.0295C29.2509 57.6806 29.0398 57.2635 29.0398 56.7768C29.0398 56.5708 29.096 56.3648 29.2065 56.1589L32.0558 51.2246L27.5046 46.6717C27.2271 46.4657 27.0876 46.2222 27.0876 45.9415V42.2514C27.0876 41.9655 27.2544 41.7033 27.588 41.4651C27.9217 41.2268 28.2944 41.1076 28.708 41.1076H37.1604C37.5264 41.1076 37.8872 41.2268 38.2447 41.4651C38.4114 41.5774 38.5391 41.6949 38.6276 41.8157L40.7157 43.9043Z" fill="url(#paint30_linear_9_1700)"/>
<path id="Vector_32" d="M40.7157 43.9043V61.0472C40.7157 61.5629 40.2424 61.9866 39.6486 62.0037C37.6726 62.0599 35.6999 62.0889 33.7341 62.0957L29.6865 58.0481C29.7121 58.0685 29.7392 58.0906 29.7665 58.1112C30.2515 58.4771 30.7946 58.6593 31.3988 58.6593C31.9213 58.6593 32.2702 58.4925 32.4456 58.1589L38.0181 47.4905C38.5254 46.5374 38.7806 45.7833 38.7806 45.2285V42.2516C38.7806 42.1018 38.7312 41.9571 38.6308 41.8193L40.7157 43.9043Z" fill="url(#paint31_linear_9_1700)"/>
<path id="Vector_33" d="M27.0879 45.9424V42.2513C27.0879 41.9656 27.2545 41.7035 27.588 41.4655C27.9215 41.2274 28.2942 41.1084 28.7072 41.1084H37.1608C37.5259 41.1084 37.8871 41.2274 38.2443 41.4655C38.6015 41.7036 38.7801 41.9656 38.7801 42.2513V45.2279C38.7801 45.7838 38.526 46.5377 38.0181 47.4902L32.4459 58.1584C32.2709 58.4917 31.9219 58.6585 31.398 58.6585C30.7944 58.6585 30.2509 58.4762 29.7668 58.1107C29.2822 57.7457 29.0405 57.3011 29.0405 56.7772C29.0405 56.5711 29.0959 56.3645 29.2071 56.1581L35.0651 46.0136V44.3468H30.8026V45.9422C30.8026 46.26 30.612 46.5298 30.231 46.7518C29.8499 46.9744 29.4131 47.0853 28.9213 47.0853C28.4131 47.0853 27.9808 46.9744 27.6234 46.7518C27.2664 46.53 27.0879 46.2602 27.0879 45.9424Z" fill="url(#paint32_linear_9_1700)"/>
<path id="Vector_34" d="M31.3979 58.1112C30.912 58.1112 30.4864 57.9681 30.0966 57.674C29.6406 57.3305 29.5879 56.9979 29.5879 56.7775C29.5879 56.664 29.6199 56.5484 29.6856 56.4243L35.6125 46.1606V43.7995H30.255V45.9424C30.255 46.0498 30.1542 46.1631 29.9553 46.279C29.6567 46.4533 29.3187 46.538 28.9212 46.538C28.5134 46.538 28.1836 46.456 27.9129 46.2873C27.6353 46.1146 27.6353 45.9896 27.6353 45.9424V42.2513C27.6353 42.1234 27.8048 41.9832 27.906 41.911C28.1465 41.7393 28.4086 41.6558 28.7071 41.6558H37.1607C37.4177 41.6558 37.6727 41.7426 37.9405 41.9211C38.1234 42.0429 38.2326 42.1664 38.2326 42.2513V45.2279C38.2326 45.5455 38.1115 46.151 37.535 47.2326L31.9606 57.9051C31.9341 57.9554 31.8524 58.1112 31.3979 58.1112Z" fill="url(#paint33_linear_9_1700)"/>
<path id="Vector_35" d="M61.0467 43.9043V59.6499C61.0467 60.1316 60.6348 60.5383 60.0834 60.5997C57.8163 60.8498 55.5389 61.0677 53.2616 61.2566C53.2599 61.2566 53.2599 61.2566 53.2581 61.2566C53.2462 61.2549 53.2343 61.2549 53.2224 61.2531L49.9987 58.0295C49.5818 57.6806 49.3706 57.2635 49.3706 56.7768C49.3706 56.5708 49.4268 56.3648 49.5374 56.1589L52.3866 51.2246L47.8354 46.6717C47.5579 46.4657 47.4185 46.2222 47.4185 45.9415V42.2514C47.4185 41.9655 47.5852 41.7033 47.9188 41.4651C48.2525 41.2268 48.6252 41.1076 49.0389 41.1076H57.4912C57.8572 41.1076 58.218 41.2268 58.5755 41.4651C58.7422 41.5774 58.8699 41.6949 58.9584 41.8157L61.0467 43.9043Z" fill="url(#paint34_linear_9_1700)"/>
<path id="Vector_36" d="M61.0465 43.9043V59.6499C61.0465 60.1316 60.6346 60.5383 60.0832 60.5997C57.8144 60.8498 55.537 61.0677 53.2581 61.2566C53.2462 61.2549 53.2343 61.2549 53.2224 61.2531L50.0173 58.0481C50.0429 58.0685 50.07 58.0906 50.0973 58.1112C50.5824 58.4771 51.1254 58.6593 51.7297 58.6593C52.2522 58.6593 52.601 58.4925 52.7764 58.1589L58.3489 47.4905C58.8561 46.5374 59.1115 45.7833 59.1115 45.2285V42.2516C59.1115 42.1018 59.062 41.9571 58.9617 41.8193L61.0465 43.9043Z" fill="url(#paint35_linear_9_1700)"/>
<path id="Vector_37" d="M47.4187 45.9424V42.2513C47.4187 41.9656 47.5853 41.7035 47.9188 41.4655C48.2523 41.2274 48.625 41.1084 49.038 41.1084H57.4916C57.8567 41.1084 58.2179 41.2274 58.5751 41.4655C58.9323 41.7036 59.1109 41.9656 59.1109 42.2513V45.2279C59.1109 45.7838 58.8568 46.5377 58.3489 47.4902L52.7767 58.1584C52.6018 58.4917 52.2527 58.6585 51.7288 58.6585C51.1252 58.6585 50.5817 58.4762 50.0978 58.1107C49.6132 57.7457 49.3715 57.3011 49.3715 56.7772C49.3715 56.5711 49.4269 56.3645 49.5381 56.1581L55.3961 46.0136V44.3468H51.1335V45.9422C51.1335 46.26 50.9429 46.5298 50.5619 46.7518C50.1809 46.9744 49.744 47.0853 49.2523 47.0853C48.744 47.0853 48.3117 46.9744 47.9544 46.7518C47.5974 46.53 47.4187 46.2602 47.4187 45.9424Z" fill="url(#paint36_linear_9_1700)"/>
<path id="Vector_38" d="M51.7288 58.1112C51.2429 58.1112 50.8173 57.9681 50.4275 57.674C49.9715 57.3305 49.9189 56.9979 49.9189 56.7775C49.9189 56.664 49.9509 56.5484 50.0167 56.4243L55.9436 46.1606V43.7995H50.5861V45.9424C50.5861 46.0498 50.4852 46.1631 50.2863 46.279C49.988 46.4533 49.6498 46.538 49.2523 46.538C48.8444 46.538 48.5147 46.456 48.244 46.2873C47.9663 46.1146 47.9663 45.9896 47.9663 45.9424V42.2513C47.9663 42.1234 48.1359 41.9832 48.2371 41.911C48.4775 41.7393 48.7396 41.6558 49.0382 41.6558H57.4918C57.7487 41.6558 58.0038 41.7426 58.2714 41.9211C58.4543 42.0429 58.5635 42.1664 58.5635 42.2513V45.2279C58.5635 45.5455 58.4424 46.151 57.8659 47.2326L52.2915 57.9051C52.265 57.9554 52.1834 58.1112 51.7288 58.1112Z" fill="url(#paint37_linear_9_1700)"/>
<path id="Vector_39" d="M20.3849 43.9043V60.7579C20.3849 61.3093 19.847 61.7485 19.2105 61.7128C16.9927 61.5902 14.775 61.4353 12.5606 61.2531L9.35571 58.0481C9.38128 58.0685 9.40842 58.0906 9.43571 58.1112C9.92073 58.4771 10.4638 58.6593 11.068 58.6593C11.5905 58.6593 11.9396 58.4925 12.1148 58.1589L17.6873 47.4905C18.1945 46.5374 18.4498 45.7833 18.4498 45.2285V42.2516C18.4498 42.1018 18.4004 41.9571 18.3 41.8193L20.3849 43.9043Z" fill="url(#paint38_linear_9_1700)"/>
<path id="Vector_40" d="M34.1598 9.72576V7.17329C34.1598 6.49627 33.6109 5.9474 32.9339 5.9474C32.2569 5.9474 31.708 6.49627 31.708 7.17329V9.72576C31.708 10.4029 32.2569 10.9516 32.9339 10.9516C33.6109 10.9516 34.1598 10.4029 34.1598 9.72576Z" fill="url(#paint39_linear_9_1700)"/>
<path id="Vector_41" d="M42.8099 19.1245H45.3623C46.0394 19.1245 46.5882 18.5756 46.5882 17.8986C46.5882 17.2216 46.0394 16.6727 45.3623 16.6727H42.8099C42.1328 16.6727 41.584 17.2216 41.584 17.8986C41.5838 18.5756 42.1328 19.1245 42.8099 19.1245Z" fill="url(#paint40_linear_9_1700)"/>
<path id="Vector_42" d="M20.5057 19.1245H23.0583C23.7353 19.1245 24.2842 18.5756 24.2842 17.8986C24.2842 17.2216 23.7353 16.6727 23.0583 16.6727H20.5057C19.8286 16.6727 19.2798 17.2216 19.2798 17.8986C19.2796 18.5756 19.8285 19.1245 20.5057 19.1245Z" fill="url(#paint41_linear_9_1700)"/>
<path id="Vector_43" d="M40.5821 13.0061L42.387 11.2012C42.8657 10.7225 42.8657 9.94631 42.387 9.46756C41.9082 8.98882 41.1321 8.98882 40.6532 9.46756L38.8483 11.2724C38.3696 11.7512 38.3696 12.5273 38.8483 13.0062C39.3271 13.4848 40.1034 13.4848 40.5821 13.0061Z" fill="url(#paint42_linear_9_1700)"/>
<path id="Vector_44" d="M23.481 11.2011L25.2858 13.0059C25.7646 13.4847 26.5407 13.4847 27.0195 13.0059C27.4982 12.5272 27.4982 11.7509 27.0195 11.2721L25.2146 9.46726C24.7359 8.98851 23.9597 8.98851 23.4808 9.46726C23.0022 9.94616 23.0021 10.7223 23.481 11.2011Z" fill="url(#paint43_linear_9_1700)"/>
</g>
<defs>
<linearGradient id="paint0_linear_9_1700" x1="72.5786" y1="35.2445" x2="75.6649" y2="35.2445" gradientUnits="userSpaceOnUse">
<stop stop-color="#E4F2FF"/>
<stop offset="1" stop-color="#B2CBFF"/>
</linearGradient>
<linearGradient id="paint1_linear_9_1700" x1="78.8009" y1="27.6931" x2="70.8075" y2="19.6461" gradientUnits="userSpaceOnUse">
<stop stop-color="#3F3CED" stop-opacity="0"/>
<stop offset="0.2796" stop-color="#3C3DE4" stop-opacity="0.28"/>
<stop offset="0.7305" stop-color="#3541CC" stop-opacity="0.731"/>
<stop offset="1" stop-color="#2F43BB"/>
</linearGradient>
<linearGradient id="paint2_linear_9_1700" x1="71.6666" y1="16.6065" x2="79.5209" y2="24.461" gradientUnits="userSpaceOnUse">
<stop stop-color="#91F27F"/>
<stop offset="1" stop-color="#00B302"/>
</linearGradient>
<linearGradient id="paint3_linear_9_1700" x1="74.5398" y1="19.4796" x2="69.0518" y2="13.9916" gradientUnits="userSpaceOnUse">
<stop stop-color="#91F27F" stop-opacity="0"/>
<stop offset="1" stop-color="#FFED82"/>
</linearGradient>
<linearGradient id="paint4_linear_9_1700" x1="73.7053" y1="21.3585" x2="89.8755" y2="8.22411" gradientUnits="userSpaceOnUse">
<stop stop-color="#005A01" stop-opacity="0"/>
<stop offset="1" stop-color="#005A01"/>
</linearGradient>
<linearGradient id="paint5_linear_9_1700" x1="73.4246" y1="48.0171" x2="73.4246" y2="55.6505" gradientUnits="userSpaceOnUse">
<stop stop-color="#9B62CD"/>
<stop offset="0.3003" stop-color="#985DCB"/>
<stop offset="0.6716" stop-color="#8F4EC7"/>
<stop offset="1" stop-color="#833AC1"/>
</linearGradient>
<linearGradient id="paint6_linear_9_1700" x1="74.8128" y1="51.8603" x2="67.8971" y2="48.2048" gradientUnits="userSpaceOnUse">
<stop stop-color="#833AC1" stop-opacity="0"/>
<stop offset="1" stop-color="#6E566E"/>
</linearGradient>
<linearGradient id="paint7_linear_9_1700" x1="67.2512" y1="47.0566" x2="67.2512" y2="58.6185" gradientUnits="userSpaceOnUse">
<stop stop-color="#FF7044"/>
<stop offset="1" stop-color="#F82814"/>
</linearGradient>
<linearGradient id="paint8_linear_9_1700" x1="69.9552" y1="52.8197" x2="58.9819" y2="47.0196" gradientUnits="userSpaceOnUse">
<stop stop-color="#F82814" stop-opacity="0"/>
<stop offset="1" stop-color="#C0272D"/>
</linearGradient>
<linearGradient id="paint9_linear_9_1700" x1="32.934" y1="14.9675" x2="32.934" y2="29.1319" gradientUnits="userSpaceOnUse">
<stop stop-color="#FF7044"/>
<stop offset="1" stop-color="#F82814"/>
</linearGradient>
<linearGradient id="paint10_linear_9_1700" x1="33.1624" y1="20.6547" x2="27.9179" y2="13.3836" gradientUnits="userSpaceOnUse">
<stop stop-color="#FF7044" stop-opacity="0"/>
<stop offset="1" stop-color="#FFA325"/>
</linearGradient>
<linearGradient id="paint11_linear_9_1700" x1="36.0924" y1="13.045" x2="36.0924" y2="27.2095" gradientUnits="userSpaceOnUse">
<stop stop-color="#F82814" stop-opacity="0"/>
<stop offset="1" stop-color="#C0272D"/>
</linearGradient>
<linearGradient id="paint12_linear_9_1700" x1="32.9339" y1="17.7744" x2="32.9339" y2="4.81376" gradientUnits="userSpaceOnUse">
<stop stop-color="white" stop-opacity="0"/>
<stop offset="1" stop-color="white"/>
</linearGradient>
<linearGradient id="paint13_linear_9_1700" x1="32.934" y1="22.0094" x2="32.934" y2="29.2177" gradientUnits="userSpaceOnUse">
<stop stop-color="#8A7889"/>
<stop offset="1" stop-color="#6E566E"/>
</linearGradient>
<linearGradient id="paint14_linear_9_1700" x1="35.0447" y1="27.4662" x2="27.9597" y2="17.2894" gradientUnits="userSpaceOnUse">
<stop stop-color="#8A7889" stop-opacity="0"/>
<stop offset="1" stop-color="#9D8B91"/>
</linearGradient>
<linearGradient id="paint15_linear_9_1700" x1="17.0242" y1="33.869" x2="48.7701" y2="65.824" gradientUnits="userSpaceOnUse">
<stop stop-color="#9B62CD"/>
<stop offset="0.3003" stop-color="#985DCB"/>
<stop offset="0.6716" stop-color="#8F4EC7"/>
<stop offset="1" stop-color="#833AC1"/>
</linearGradient>
<linearGradient id="paint16_linear_9_1700" x1="32.9338" y1="30.7556" x2="32.9338" y2="26.4757" gradientUnits="userSpaceOnUse">
<stop stop-color="#9B62CD"/>
<stop offset="0.1454" stop-color="#965ACB"/>
<stop offset="0.672" stop-color="#8843C4"/>
<stop offset="1" stop-color="#833AC1"/>
</linearGradient>
<linearGradient id="paint17_linear_9_1700" x1="47.672" y1="60.2677" x2="-13.4121" y2="18.359" gradientUnits="userSpaceOnUse">
<stop stop-color="#9B62CD" stop-opacity="0"/>
<stop offset="1" stop-color="#FF75C8"/>
</linearGradient>
<linearGradient id="paint18_linear_9_1700" x1="33.2413" y1="77.7876" x2="32.8526" y2="60.6883" gradientUnits="userSpaceOnUse">
<stop stop-color="#833AC1" stop-opacity="0"/>
<stop offset="1" stop-color="#6E566E"/>
</linearGradient>
<linearGradient id="paint19_linear_9_1700" x1="31.8541" y1="42.504" x2="35.8894" y2="70.0792" gradientUnits="userSpaceOnUse">
<stop stop-color="#FFD945"/>
<stop offset="0.3043" stop-color="#FFCD3E"/>
<stop offset="0.8558" stop-color="#FFAD2B"/>
<stop offset="1" stop-color="#FFA325"/>
</linearGradient>
<linearGradient id="paint20_linear_9_1700" x1="37.9748" y1="57.9102" x2="17.377" y2="22.5758" gradientUnits="userSpaceOnUse">
<stop stop-color="#FFD945" stop-opacity="0"/>
<stop offset="1" stop-color="#FBED21"/>
</linearGradient>
<linearGradient id="paint21_linear_9_1700" x1="12.6031" y1="44.9516" x2="12.6031" y2="58.8307" gradientUnits="userSpaceOnUse">
<stop stop-color="white"/>
<stop offset="1" stop-color="#E4F2FF"/>
</linearGradient>
<linearGradient id="paint22_linear_9_1700" x1="32.9341" y1="44.9516" x2="32.9341" y2="58.8307" gradientUnits="userSpaceOnUse">
<stop stop-color="white"/>
<stop offset="1" stop-color="#E4F2FF"/>
</linearGradient>
<linearGradient id="paint23_linear_9_1700" x1="53.2648" y1="44.9516" x2="53.2648" y2="58.8307" gradientUnits="userSpaceOnUse">
<stop stop-color="white"/>
<stop offset="1" stop-color="#E4F2FF"/>
</linearGradient>
<linearGradient id="paint24_linear_9_1700" x1="12.6031" y1="39.6102" x2="12.6031" y2="35.236" gradientUnits="userSpaceOnUse">
<stop stop-color="#3F3CED" stop-opacity="0"/>
<stop offset="0.2796" stop-color="#3C3DE4" stop-opacity="0.28"/>
<stop offset="0.7305" stop-color="#3541CC" stop-opacity="0.731"/>
<stop offset="1" stop-color="#2F43BB"/>
</linearGradient>
<linearGradient id="paint25_linear_9_1700" x1="32.934" y1="39.6102" x2="32.934" y2="35.236" gradientUnits="userSpaceOnUse">
<stop stop-color="#3F3CED" stop-opacity="0"/>
<stop offset="0.2796" stop-color="#3C3DE4" stop-opacity="0.28"/>
<stop offset="0.7305" stop-color="#3541CC" stop-opacity="0.731"/>
<stop offset="1" stop-color="#2F43BB"/>
</linearGradient>
<linearGradient id="paint26_linear_9_1700" x1="53.2648" y1="39.6101" x2="53.2648" y2="35.236" gradientUnits="userSpaceOnUse">
<stop stop-color="#3F3CED" stop-opacity="0"/>
<stop offset="0.2796" stop-color="#3C3DE4" stop-opacity="0.28"/>
<stop offset="0.7305" stop-color="#3541CC" stop-opacity="0.731"/>
<stop offset="1" stop-color="#2F43BB"/>
</linearGradient>
<linearGradient id="paint27_linear_9_1700" x1="13.2503" y1="49.3262" x2="5.27394" y2="41.1615" gradientUnits="userSpaceOnUse">
<stop stop-color="#3F3CED" stop-opacity="0"/>
<stop offset="0.2796" stop-color="#3C3DE4" stop-opacity="0.28"/>
<stop offset="0.7305" stop-color="#3541CC" stop-opacity="0.731"/>
<stop offset="1" stop-color="#2F43BB"/>
</linearGradient>
<linearGradient id="paint28_linear_9_1700" x1="6.75708" y1="49.8836" x2="18.4493" y2="49.8836" gradientUnits="userSpaceOnUse">
<stop stop-color="#FFD945"/>
<stop offset="0.3043" stop-color="#FFCD3E"/>
<stop offset="0.8558" stop-color="#FFAD2B"/>
<stop offset="1" stop-color="#FFA325"/>
</linearGradient>
<linearGradient id="paint29_linear_9_1700" x1="7.30444" y1="49.8836" x2="17.9018" y2="49.8836" gradientUnits="userSpaceOnUse">
<stop stop-color="#FF7044"/>
<stop offset="1" stop-color="#F82814"/>
</linearGradient>
<linearGradient id="paint30_linear_9_1700" x1="33.642" y1="49.3887" x2="25.5946" y2="41.1513" gradientUnits="userSpaceOnUse">
<stop stop-color="#3F3CED" stop-opacity="0"/>
<stop offset="0.2796" stop-color="#3C3DE4" stop-opacity="0.28"/>
<stop offset="0.7305" stop-color="#3541CC" stop-opacity="0.731"/>
<stop offset="1" stop-color="#2F43BB"/>
</linearGradient>
<linearGradient id="paint31_linear_9_1700" x1="37.9728" y1="53.0789" x2="28.642" y2="47.2348" gradientUnits="userSpaceOnUse">
<stop stop-color="#3F3CED" stop-opacity="0"/>
<stop offset="0.2796" stop-color="#3C3DE4" stop-opacity="0.28"/>
<stop offset="0.7305" stop-color="#3541CC" stop-opacity="0.731"/>
<stop offset="1" stop-color="#2F43BB"/>
</linearGradient>
<linearGradient id="paint32_linear_9_1700" x1="27.0879" y1="49.8836" x2="38.7801" y2="49.8836" gradientUnits="userSpaceOnUse">
<stop stop-color="#FFD945"/>
<stop offset="0.3043" stop-color="#FFCD3E"/>
<stop offset="0.8558" stop-color="#FFAD2B"/>
<stop offset="1" stop-color="#FFA325"/>
</linearGradient>
<linearGradient id="paint33_linear_9_1700" x1="27.6353" y1="49.8836" x2="38.2326" y2="49.8836" gradientUnits="userSpaceOnUse">
<stop stop-color="#FF7044"/>
<stop offset="1" stop-color="#F82814"/>
</linearGradient>
<linearGradient id="paint34_linear_9_1700" x1="53.7162" y1="48.8117" x2="45.7588" y2="39.1943" gradientUnits="userSpaceOnUse">
<stop stop-color="#3F3CED" stop-opacity="0"/>
<stop offset="0.2796" stop-color="#3C3DE4" stop-opacity="0.28"/>
<stop offset="0.7305" stop-color="#3541CC" stop-opacity="0.731"/>
<stop offset="1" stop-color="#2F43BB"/>
</linearGradient>
<linearGradient id="paint35_linear_9_1700" x1="58.0933" y1="52.7896" x2="49.3339" y2="47.3035" gradientUnits="userSpaceOnUse">
<stop stop-color="#3F3CED" stop-opacity="0"/>
<stop offset="0.2796" stop-color="#3C3DE4" stop-opacity="0.28"/>
<stop offset="0.7305" stop-color="#3541CC" stop-opacity="0.731"/>
<stop offset="1" stop-color="#2F43BB"/>
</linearGradient>
<linearGradient id="paint36_linear_9_1700" x1="47.4187" y1="49.8836" x2="59.1109" y2="49.8836" gradientUnits="userSpaceOnUse">
<stop stop-color="#FFD945"/>
<stop offset="0.3043" stop-color="#FFCD3E"/>
<stop offset="0.8558" stop-color="#FFAD2B"/>
<stop offset="1" stop-color="#FFA325"/>
</linearGradient>
<linearGradient id="paint37_linear_9_1700" x1="47.9663" y1="49.8836" x2="58.5635" y2="49.8836" gradientUnits="userSpaceOnUse">
<stop stop-color="#FF7044"/>
<stop offset="1" stop-color="#F82814"/>
</linearGradient>
<linearGradient id="paint38_linear_9_1700" x1="17.6547" y1="52.9294" x2="8.44214" y2="47.1593" gradientUnits="userSpaceOnUse">
<stop stop-color="#3F3CED" stop-opacity="0"/>
<stop offset="0.2796" stop-color="#3C3DE4" stop-opacity="0.28"/>
<stop offset="0.7305" stop-color="#3541CC" stop-opacity="0.731"/>
<stop offset="1" stop-color="#2F43BB"/>
</linearGradient>
<linearGradient id="paint39_linear_9_1700" x1="32.6484" y1="8.44952" x2="35.1709" y2="8.44952" gradientUnits="userSpaceOnUse">
<stop stop-color="#FFD945"/>
<stop offset="0.3043" stop-color="#FFCD3E"/>
<stop offset="0.8558" stop-color="#FFAD2B"/>
<stop offset="1" stop-color="#FFA325"/>
</linearGradient>
<linearGradient id="paint40_linear_9_1700" x1="44.0861" y1="17.6131" x2="44.0861" y2="20.1356" gradientUnits="userSpaceOnUse">
<stop stop-color="#FFD945"/>
<stop offset="0.3043" stop-color="#FFCD3E"/>
<stop offset="0.8558" stop-color="#FFAD2B"/>
<stop offset="1" stop-color="#FFA325"/>
</linearGradient>
<linearGradient id="paint41_linear_9_1700" x1="21.7819" y1="17.6131" x2="21.7819" y2="20.1356" gradientUnits="userSpaceOnUse">
<stop stop-color="#FFD945"/>
<stop offset="0.3043" stop-color="#FFCD3E"/>
<stop offset="0.8558" stop-color="#FFAD2B"/>
<stop offset="1" stop-color="#FFA325"/>
</linearGradient>
<linearGradient id="paint42_linear_9_1700" x1="40.3818" y1="11.0296" x2="42.1653" y2="12.8131" gradientUnits="userSpaceOnUse">
<stop stop-color="#FFD945"/>
<stop offset="0.3043" stop-color="#FFCD3E"/>
<stop offset="0.8558" stop-color="#FFAD2B"/>
<stop offset="1" stop-color="#FFA325"/>
</linearGradient>
<linearGradient id="paint43_linear_9_1700" x1="25.459" y1="11.0002" x2="23.6755" y2="12.7837" gradientUnits="userSpaceOnUse">
<stop stop-color="#FFD945"/>
<stop offset="0.3043" stop-color="#FFCD3E"/>
<stop offset="0.8558" stop-color="#FFAD2B"/>
<stop offset="1" stop-color="#FFA325"/>
</linearGradient>
<clipPath id="clip0_9_1700">
<rect width="80" height="80" fill="white" transform="translate(0 0.523254)"/>
</clipPath>
</defs>
</svg>
