<svg width="803" height="489" viewBox="0 0 803 489" fill="none" xmlns="http://www.w3.org/2000/svg">
<path opacity="0.21" fill-rule="evenodd" clip-rule="evenodd" d="M293.479 6.86646e-05C293.481 0.186508 293.481 0.373482 293.481 0.56028C293.481 36.1495 264.612 64.9999 229 64.9999C193.388 64.9999 164.519 36.1495 164.519 0.56028C164.519 0.373466 164.52 0.186508 164.522 6.86646e-05L293.479 6.86646e-05Z" fill="#825EEE"/>
<path opacity="0.21" fill-rule="evenodd" clip-rule="evenodd" d="M0.019148 108.939C0.019148 84.6718 19.7101 64.9997 44.0004 64.9997C68.2901 64.9997 87.981 84.6718 87.981 108.939C87.981 133.206 68.2901 152.878 44.0004 152.878C19.7101 152.878 0.019148 133.206 0.019148 108.939Z" fill="#3DD47E"/>
<path fill-rule="evenodd" clip-rule="evenodd" d="M272.67 482.428C271.235 481.6 270.743 479.765 271.572 478.33L276.572 469.67C277.4 468.235 279.235 467.744 280.67 468.572L289.33 473.572C290.765 474.4 291.257 476.235 290.428 477.67L285.428 486.33C284.6 487.765 282.765 488.257 281.33 487.428L272.67 482.428Z" fill="#588FFF"/>
<path fill-rule="evenodd" clip-rule="evenodd" d="M791.671 192.428C790.236 193.256 788.401 192.765 787.573 191.33L782.573 182.67C781.744 181.235 782.236 179.4 783.671 178.572L792.331 173.572C793.766 172.743 795.601 173.235 796.429 174.67L801.429 183.33C802.257 184.765 801.766 186.6 800.331 187.428L791.671 192.428Z" fill="#FF761B"/>
<path fill-rule="evenodd" clip-rule="evenodd" d="M466 177C464.343 177 463 175.657 463 174V170C463 168.343 464.343 167 466 167H470C471.657 167 473 168.343 473 170V174C473 175.657 471.657 177 470 177H466Z" fill="#282A5B"/>
</svg>
